<?xml version="1.0" encoding="UTF-8"?>
<!DOCTYPE svg PUBLIC "-//W3C//DTD SVG 1.1//EN" "http://www.w3.org/Graphics/SVG/1.1/DTD/svg11.dtd">
<!-- Creator: CorelDRAW -->
<svg xmlns="http://www.w3.org/2000/svg" xml:space="preserve" width="40px" height="40px" version="1.1" style="shape-rendering:geometricPrecision; text-rendering:geometricPrecision; image-rendering:optimizeQuality; fill-rule:evenodd; clip-rule:evenodd"
viewBox="0 0 4.39 4.39"
 xmlns:xlink="http://www.w3.org/1999/xlink"
 xmlns:xodm="http://www.corel.com/coreldraw/odm/2003">
 <defs>
  <style type="text/css">
   <![CDATA[
    .fil0 {fill:none}
    .fil1 {fill:red;fill-rule:nonzero}
   ]]>
  </style>
 </defs>
 <g id="Capa_x0020_1">
  <metadata id="CorelCorpID_0Corel-Layer"/>
  <g id="_1740151772784">
   <rect class="fil0" width="4.39" height="4.39"/>
   <g>
    <path class="fil1" d="M2.14 1.55c0.26,0 0.52,0 0.77,0 0.02,0 0.03,0 0.05,-0.01 0.05,-0.03 0.1,-0.07 0.15,-0.1 0.04,-0.02 0.08,-0.04 0.11,-0.06 0.01,-0.01 0.01,-0.01 0.01,-0.01 0,0 0.01,0 0.01,0 0,-0.01 0,-0.01 -0.01,-0.01l0 0c0,0 0,-0.01 0,-0.01 -0.13,-0.18 -0.25,-0.37 -0.37,-0.55 -0.02,-0.03 -0.04,-0.06 -0.06,-0.09 -0.03,-0.03 -0.05,-0.07 -0.07,-0.1 -0.05,-0.08 -0.1,-0.16 -0.16,-0.23 0,0 0,-0.01 0,-0.01 0,0 0,0.01 0,0.01 -0.02,0.01 -0.03,0.02 -0.05,0.02 -0.01,0.01 -0.01,0.01 -0.02,0.02l-1.31 0.8c0,0 0,0.01 -0.01,0.01 0.01,0 0.01,0 0.01,0.01 0.02,0.02 0.03,0.05 0.05,0.07 0.05,0.08 0.1,0.15 0.15,0.22 0,0.01 0.01,0.02 0.01,0.02 0.01,0 0.01,0 0.02,0 0.14,0 0.28,0 0.42,0 0.04,0 0.08,0 0.12,0l0.18 0zm0 0c-0.06,0 -0.12,0 -0.18,0l0.18 0zm-1.58 0.38l0 0 0 0.01c0.01,0.04 0.05,0.08 0.1,0.09 0.01,0 0.02,0 0.03,0 0.01,0 0.01,0 0.02,0 0.01,0 0.01,0 0.02,0 0,0 0.01,0 0.01,0 0,0 0,0 0,0.01l0 1.73c0,0.02 0,0.04 0,0.05 0,0.04 0,0.08 0,0.12 0,0.1 0.07,0.18 0.17,0.21 0,0 0,0 0,0l0 0c0,0 0.01,0 0.01,0l0 0 0 0c0.85,0 1.7,0 2.55,0l0 0 0.01 0c0,0 0.01,0 0.01,0 0.01,-0.01 0.02,-0.01 0.04,-0.02 0.07,-0.04 0.12,-0.1 0.12,-0.18 0,-0.08 0,-0.15 0,-0.22 0,-0.03 0,-0.06 0,-0.09l0 -1.6c0,0 0,-0.01 0,-0.01 0,0 0.01,0 0.01,0 0.01,0 0.01,0 0.02,0 0,0 0.01,0 0.02,0 0.03,0 0.05,-0.01 0.07,-0.02 0.03,-0.01 0.04,-0.03 0.06,-0.06l0 0 0 -0.01c0,-0.08 0,-0.16 0,-0.24l0 0 0 -0.01c-0.02,-0.05 -0.06,-0.1 -0.12,-0.12 -0.03,-0.02 -0.07,-0.02 -0.1,-0.02 -0.12,0 -0.23,0 -0.35,0 -0.03,0 -0.06,0 -0.09,0 0.04,-0.02 0.07,-0.04 0.11,-0.06 0.01,-0.01 0.02,-0.02 0.03,-0.02 0.01,-0.01 0.02,-0.02 0.04,-0.03 0.02,-0.01 0.03,-0.02 0.03,-0.04 0.01,-0.02 0,-0.04 -0.01,-0.06 -0.04,-0.06 -0.09,-0.13 -0.13,-0.19 -0.03,-0.05 -0.07,-0.1 -0.1,-0.15l-0.02 -0.03c-0.16,-0.24 -0.31,-0.47 -0.47,-0.7 -0.01,-0.01 -0.02,-0.02 -0.03,-0.03l-0.01 -0.01 0 0c-0.02,0 -0.03,0 -0.04,0l0 0 0 0 -0.01 0.01c-0.02,0.01 -0.03,0.02 -0.05,0.03 -0.04,0.02 -0.07,0.04 -0.11,0.06 -0.25,0.16 -0.51,0.32 -0.76,0.48 -0.19,0.11 -0.38,0.23 -0.56,0.34 -0.02,0.01 -0.04,0.03 -0.04,0.05 -0.01,0.01 0,0.03 0.01,0.05 0.03,0.05 0.06,0.09 0.09,0.14 0.04,0.05 0.08,0.11 0.11,0.16 -0.07,0 -0.15,0 -0.23,0 -0.08,0 -0.16,0 -0.24,0 -0.03,0 -0.07,0 -0.1,0.02 -0.06,0.02 -0.1,0.07 -0.12,0.13l0 0.01 0 0c0,0.07 0,0.15 0,0.22l0 0zm2.9 -0.02l0 0 -2.67 0c0,0 -0.01,0 -0.01,0 -0.03,0 -0.06,0 -0.09,0 0,0 -0.01,0 -0.01,0 0,0 0,0 0,0 0,0 0,-0.01 0,-0.02l0 0c0,-0.04 0,-0.09 0,-0.13 0,-0.03 0.01,-0.05 0.02,-0.07 0.02,-0.01 0.04,-0.02 0.07,-0.02 0.95,0 1.9,0 2.85,0 0.03,0 0.05,0.01 0.07,0.03 0.01,0.01 0.02,0.03 0.02,0.06 0,0.04 0,0.07 0,0.11 0,0 0,0.01 0,0.02 0,0.01 0,0.02 0,0.02 0,0 0,0 0,0 -0.01,0 -0.01,0 -0.02,0 -0.05,0 -0.11,0 -0.17,0 -0.02,0 -0.04,0 -0.06,0zm-2.59 2.02c0,-0.27 0,-0.53 0,-0.8 0,-0.07 0,-0.13 0,-0.19l0 -0.9c0,-0.01 0,-0.01 0,-0.01 0,0 0,0 0.01,0l2.33 0c0.04,0 0.07,0 0.11,0 0.06,0 0.13,0 0.19,0 0.01,0 0.01,0 0.01,0 0,0 0,0 0,0.01 0,0.15 0,0.3 0,0.45 0,0.48 0,0.96 0,1.45 0,0.05 -0.04,0.1 -0.11,0.1 -0.46,0 -0.93,0 -1.39,0 -0.15,0 -0.3,0 -0.45,0l-0.01 0c-0.2,0 -0.39,0 -0.59,0 -0.04,0 -0.07,-0.02 -0.09,-0.06 -0.01,-0.01 -0.01,-0.03 -0.01,-0.05z"/>
    <path class="fil1" d="M1.58 2.76l0 0 0 0c-0.05,0.12 -0.06,0.24 -0.04,0.37 0.07,0.35 0.4,0.59 0.76,0.53 0.37,-0.06 0.61,-0.41 0.55,-0.78 -0.07,-0.38 -0.46,-0.62 -0.83,-0.52 -0.21,0.06 -0.36,0.19 -0.44,0.4zm0.1 0.41c0,0 0,-0.01 0,-0.02 0,0 0,0 0,-0.01 -0.05,-0.2 -0.01,-0.38 0.14,-0.53 0.12,-0.11 0.26,-0.15 0.42,-0.14 0.25,0.02 0.44,0.2 0.48,0.45 0.05,0.3 -0.16,0.56 -0.44,0.61 -0.26,0.05 -0.51,-0.11 -0.6,-0.36z"/>
    <path class="fil1" d="M2.01 3.01l0.03 0.04c0.03,0.03 0.06,0.06 0.09,0.09l0 0.01 0.01 -0.01 0.26 -0.28c0.01,-0.01 0.01,-0.02 0.02,-0.02 0.01,-0.01 0.02,-0.01 0.03,-0.01 0.01,-0.01 0.03,0 0.04,0 0.02,0.01 0.03,0.02 0.03,0.03 0.01,0.02 0.01,0.04 0.01,0.05 0,0.02 -0.01,0.04 -0.02,0.05 -0.01,0.02 -0.03,0.04 -0.05,0.06l-0.26 0.29c-0.01,0.01 -0.02,0.02 -0.03,0.02 -0.01,0.01 -0.02,0.01 -0.04,0.01 -0.01,0 -0.02,0 -0.03,-0.01 -0.01,0 -0.02,-0.01 -0.03,-0.02l-0.19 -0.21c-0.01,-0.02 -0.02,-0.03 -0.02,-0.04 -0.01,-0.01 -0.01,-0.03 -0.01,-0.04 0.01,-0.02 0.01,-0.03 0.02,-0.04 0.01,-0.01 0.02,-0.02 0.04,-0.02l0 0c0.01,0 0.02,0 0.03,0 0.01,0 0.02,0.01 0.03,0.02l0 0c0.01,0 0.02,0.01 0.03,0.02l0.01 0.01z"/>
   </g>
  </g>
 </g>
</svg>
