<?xml version="1.0" encoding="UTF-8"?>
<!DOCTYPE svg PUBLIC "-//W3C//DTD SVG 1.1//EN" "http://www.w3.org/Graphics/SVG/1.1/DTD/svg11.dtd">
<!-- Creator: CorelDRAW -->
<svg xmlns="http://www.w3.org/2000/svg" xml:space="preserve" width="40px" height="40px" version="1.1" style="shape-rendering:geometricPrecision; text-rendering:geometricPrecision; image-rendering:optimizeQuality; fill-rule:evenodd; clip-rule:evenodd"
viewBox="0 0 3.44 3.44"
 xmlns:xlink="http://www.w3.org/1999/xlink"
 xmlns:xodm="http://www.corel.com/coreldraw/odm/2003">
 <defs>
  <style type="text/css">
   <![CDATA[
    .fil0 {fill:none}
    .fil1 {fill:red;fill-rule:nonzero}
   ]]>
  </style>
 </defs>
 <g id="Capa_x0020_1">
  <metadata id="CorelCorpID_0Corel-Layer"/>
  <g id="_1740255098272">
   <rect class="fil0" width="3.44" height="3.44"/>
   <g>
    <path class="fil1" d="M3.14 2.28c-0.08,0.09 -0.18,0.15 -0.3,0.16 -0.03,0.01 -0.06,0.01 -0.09,0.01 -0.01,0 -0.02,0 -0.02,0.02 0,0.15 0,0.31 0,0.47 0,0.02 -0.01,0.04 -0.03,0.05 -0.03,0.02 -0.05,0 -0.07,-0.01 -0.17,-0.17 -0.34,-0.34 -0.51,-0.51 -0.01,-0.01 -0.02,-0.02 -0.04,-0.02 -0.09,0 -0.17,0 -0.25,0 -0.2,0 -0.37,-0.11 -0.44,-0.3 -0.02,-0.05 -0.03,-0.11 -0.02,-0.18 0,-0.02 0,-0.02 -0.03,-0.02 -0.03,0 -0.06,0 -0.09,0 -0.01,0 -0.02,0 -0.02,0.01 -0.13,0.13 -0.26,0.26 -0.39,0.39 -0.01,0.01 -0.03,0.02 -0.04,0.03 -0.01,0.02 -0.03,0.02 -0.06,0.01 -0.02,0 -0.03,-0.02 -0.03,-0.04 0,-0.02 0,-0.04 0,-0.06 0,-0.1 0,-0.21 0,-0.32 0,-0.02 0,-0.02 -0.02,-0.02 -0.12,0 -0.23,-0.03 -0.32,-0.11 -0.07,-0.05 -0.11,-0.12 -0.14,-0.2 -0.02,-0.05 -0.02,-0.11 -0.02,-0.16 0,-0.2 0,-0.39 0,-0.59 0,-0.12 0.05,-0.23 0.14,-0.32 0.07,-0.07 0.15,-0.11 0.24,-0.12 0.03,-0.01 0.05,-0.01 0.08,-0.01 0.32,0 0.63,0 0.95,0 0.21,0 0.38,0.14 0.44,0.32 0.01,0.05 0.02,0.11 0.02,0.16 0,0.02 0,0.02 0.02,0.02 0.23,0 0.46,0 0.69,0 0.08,0 0.16,0.03 0.23,0.07 0.09,0.06 0.16,0.14 0.19,0.24 0.02,0.05 0.02,0.09 0.02,0.14 0,0.2 0,0.4 0,0.6 0,0.11 -0.03,0.2 -0.09,0.29zm-0.12 -1.13c-0.06,-0.06 -0.14,-0.1 -0.22,-0.1 -0.33,0 -0.66,0 -0.99,0 -0.08,0 -0.16,0.03 -0.22,0.09 -0.08,0.07 -0.12,0.16 -0.12,0.26 0,0.1 0,0.2 0,0.3 0,0.11 0,0.22 0.01,0.34 0,0.04 0.01,0.09 0.04,0.13 0.07,0.12 0.18,0.17 0.31,0.17 0.1,0.01 0.19,0.01 0.29,0 0.02,0 0.03,0.01 0.05,0.03 0.14,0.14 0.29,0.28 0.43,0.42 0.01,0.01 0.01,0.02 0.02,0.03 0.01,-0.01 0,-0.02 0,-0.02 0,-0.08 0.01,-0.15 0.01,-0.22 0,-0.05 0,-0.11 -0.01,-0.16 0,-0.06 0.02,-0.08 0.07,-0.08 0.06,0 0.11,0.01 0.17,-0.01 0.16,-0.03 0.27,-0.17 0.27,-0.33 0,-0.2 0,-0.4 0,-0.59 0,-0.1 -0.03,-0.19 -0.11,-0.26zm-2.43 0.68c0.05,0.01 0.1,0.01 0.15,0.01 0.06,0 0.08,0.02 0.08,0.08 0,0.09 0,0.18 0,0.27 0,0.01 0,0.02 0,0.02 0.01,0 0.01,-0.01 0.02,-0.01 0.11,-0.11 0.22,-0.22 0.33,-0.33 0.02,-0.02 0.04,-0.03 0.07,-0.03 0.03,0 0.07,0 0.1,0 0.03,0 0.03,0 0.03,-0.02 0,-0.14 0,-0.28 -0.01,-0.42 0,-0.03 0.01,-0.06 0.01,-0.09 0.02,-0.07 0.05,-0.13 0.09,-0.19 0.09,-0.11 0.2,-0.17 0.35,-0.18 0.05,0 0.09,0 0.14,0 0.01,0 0.02,0 0.02,-0.01 0,-0.05 0,-0.09 -0.02,-0.14 -0.05,-0.15 -0.19,-0.24 -0.32,-0.24 -0.33,0 -0.65,0 -0.98,0 -0.08,0 -0.16,0.03 -0.22,0.09 -0.08,0.07 -0.12,0.16 -0.12,0.26 0,0.19 0,0.38 0,0.58 0,0.03 0.01,0.07 0.02,0.1 0.01,0.07 0.05,0.12 0.1,0.17 0.04,0.04 0.09,0.07 0.16,0.08z"/>
    <path class="fil1" d="M2.4 1.94c0.16,0 0.31,0 0.47,0 0.02,0 0.05,0.01 0.06,0.03 0.01,0.03 0,0.06 -0.03,0.07 -0.03,0.01 -0.05,0.01 -0.07,0.01 -0.05,0 -0.09,0 -0.14,0 -0.14,0 -0.28,0 -0.42,0 -0.13,0 -0.26,0 -0.39,0 -0.05,0 -0.1,0 -0.15,0 -0.02,0 -0.04,-0.01 -0.06,-0.03 -0.01,-0.04 0.01,-0.07 0.05,-0.08 0.01,0 0.01,0 0.02,0 0.22,0 0.44,0 0.66,0z"/>
    <path class="fil1" d="M1.67 1.72c-0.01,-0.04 0.01,-0.07 0.05,-0.08 0.01,0 0.01,0 0.02,0 0.37,0 0.75,0 1.13,0 0.02,0 0.04,0.01 0.06,0.03 0.01,0.03 0,0.07 -0.04,0.08 -0.01,0 -0.01,0 -0.02,0 -0.38,0 -0.76,0 -1.14,0 -0.02,0 -0.04,-0.01 -0.06,-0.03z"/>
    <path class="fil1" d="M2.4 1.34c0.16,0 0.32,0 0.47,0 0.01,0 0.02,0 0.02,0.01 0.03,0 0.05,0.03 0.04,0.05 0,0.02 -0.02,0.04 -0.05,0.05 0,0 -0.01,0 -0.02,0 -0.37,0 -0.74,0 -1.11,0 -0.02,0 -0.03,0 -0.04,0 -0.02,-0.01 -0.04,-0.03 -0.04,-0.06 0,-0.02 0.02,-0.04 0.05,-0.05 0,0 0.01,0 0.01,0 0.22,0 0.45,0 0.67,0z"/>
    <path class="fil1" d="M1.45 0.95c-0.31,0 -0.62,0 -0.93,0 -0.02,0 -0.04,-0.01 -0.05,-0.03 -0.02,-0.03 0,-0.07 0.03,-0.07 0.01,-0.01 0.02,-0.01 0.03,-0.01 0.34,0 0.68,0 1.03,0 0.02,0 0.04,0.01 0.05,0.03 0.01,0.01 0.02,0.03 0.01,0.05 -0.01,0.02 -0.03,0.03 -0.05,0.03 -0.04,0 -0.08,0 -0.12,0z"/>
    <path class="fil1" d="M1.25 1.25c-0.25,0 -0.49,0 -0.74,0 -0.02,0 -0.04,-0.02 -0.05,-0.04 0,-0.02 0.01,-0.05 0.03,-0.06 0.01,-0.01 0.02,-0.01 0.03,-0.01 0.12,0 0.23,0 0.35,0 0.13,0 0.26,0 0.39,0 0.03,0 0.05,0.01 0.06,0.04 0.01,0.03 -0.01,0.07 -0.05,0.07 0,0 -0.01,0 -0.02,0z"/>
    <path class="fil1" d="M0.47 1.46c0.01,-0.01 0.03,-0.02 0.04,-0.02 0.24,0 0.47,0 0.71,0 0.02,0 0.04,0.02 0.05,0.04 0,0.03 -0.01,0.05 -0.03,0.06 -0.01,0.01 -0.03,0.01 -0.04,0.01 -0.1,0 -0.19,0 -0.29,0 -0.11,0 -0.23,0 -0.34,0 -0.02,0 -0.04,0 -0.06,0 -0.04,0 -0.07,-0.05 -0.04,-0.09z"/>
   </g>
  </g>
 </g>
</svg>
