<svg width="41" height="34" viewBox="0 0 41 34" fill="none" xmlns="http://www.w3.org/2000/svg">
<path d="M25.5234 24.2935C25.5234 16.3334 19.4181 6.54895 13.062 6.54895C8.54573 6.54895 3.52771 11.1095 1.35323 21.3914C-0.821241 31.6733 7.54213 33 12.811 33C18.08 33 25.5234 32.2537 25.5234 24.2935Z" stroke="#FF0000" stroke-width="2"/>
<path d="M17.0764 2.23718C17.16 0.164214 14.6 1.57383 13.062 1.57383C11.4 1.57383 9.13117 -0.0845413 9.13117 2.23718C9.13117 4.5589 10.6366 6.05144 13.062 6.05144C15.4873 6.05144 16.9927 4.31015 17.0764 2.23718Z" stroke="#FF0000" stroke-width="2"/>
<path d="M28.4924 25.5059C30.5181 25.6137 32.5368 25.1913 34.3493 24.2805C36.1617 23.3696 37.7054 22.0018 38.8277 20.3121C39.95 18.6224 40.6123 16.6692 40.749 14.6453C40.8858 12.6215 40.4924 10.5969 39.6076 8.77155C38.7229 6.94619 37.3773 5.38314 35.7039 4.23671C34.0304 3.09027 32.0869 2.4001 30.0652 2.23433C28.0435 2.06855 26.0135 2.43291 24.1757 3.29142C22.3378 4.14994 20.7556 5.47293 19.5853 7.12978L21.6091 8.55926C22.5308 7.25438 23.7769 6.21243 25.2243 5.53629C26.6718 4.86016 28.2705 4.5732 29.8627 4.70376C31.455 4.83432 32.9856 5.37787 34.3036 6.28077C35.6215 7.18366 36.6812 8.41467 37.378 9.85226C38.0748 11.2899 38.3847 12.8843 38.277 14.4783C38.1692 16.0722 37.6477 17.6105 36.7638 18.9412C35.8799 20.272 34.6642 21.3492 33.2367 22.0666C31.8092 22.7839 30.2194 23.1166 28.6241 23.0317L28.4924 25.5059Z" fill="#FF0000"/>
<circle cx="28.9999" cy="13.8031" r="1.6" fill="#FF0000"/>
<path d="M29 13V9" stroke="#FF0000" stroke-width="2" stroke-linecap="round"/>
<path d="M29.7998 13.7969L33.7998 13.7969" stroke="#FF0000" stroke-width="2" stroke-linecap="round"/>
<path fill-rule="evenodd" clip-rule="evenodd" d="M11.8092 14.5458V15.1953C11.6527 15.256 11.501 15.3268 11.3551 15.4078C10.2807 16.0234 9.66089 17.0495 9.66089 18.3218C9.66089 20.0066 11.1611 20.7504 12.3093 21.3197L12.3882 21.3588C13.0081 21.6461 13.9585 22.0976 13.9585 22.4259C13.9585 22.7103 13.8345 22.8099 13.7744 22.8582C13.7652 22.8656 13.7574 22.8719 13.7519 22.8774C13.4626 23.1236 12.6775 23.2057 11.3551 22.7542C10.6113 22.508 9.78486 22.9184 9.53693 23.6571C9.28899 24.3959 9.70222 25.2167 10.446 25.463C10.9318 25.6238 11.3878 25.7354 11.8092 25.8074V26.3661C11.8092 27.1459 12.4704 27.8025 13.2555 27.8025C14.0406 27.8025 14.7018 27.1459 14.7018 26.3661V25.6026C14.9903 25.4848 15.2238 25.3475 15.4048 25.2167C16.3139 24.6011 16.8098 23.5751 16.8098 22.4259C16.8098 20.3328 14.9089 19.3888 13.6279 18.7732C13.488 18.6863 13.311 18.5921 13.1377 18.4998L13.1377 18.4998C12.9017 18.3742 12.6726 18.2522 12.5535 18.1576C12.5948 18.0345 12.6775 17.9524 12.7601 17.9113C13.132 17.6651 13.9998 17.7061 14.785 18.1986C15.4461 18.6501 16.3552 18.4038 16.7685 17.7472C17.223 17.0905 16.9751 16.1876 16.3139 15.7772C15.8007 15.4635 15.254 15.2331 14.7018 15.0899V14.5458C14.7018 13.766 14.0406 13.1094 13.2555 13.1094C12.4704 13.1094 11.8092 13.766 11.8092 14.5458Z" fill="#FF0000"/>
</svg>
