<svg width="40" height="33" viewBox="0 0 40 33" fill="none" xmlns="http://www.w3.org/2000/svg">
<path d="M36.5174 21.2562C35.439 21.2562 34.2776 20.5806 34.0619 19.3118C33.9956 18.8833 34.0122 18.3561 34.1449 17.8123C33.5808 18.0265 33.0997 18.3231 32.7844 18.7186C32.5522 18.9987 32.1374 19.0481 31.8553 18.8174C31.5733 18.5867 31.5235 18.1748 31.7558 17.8947C32.436 17.0378 33.6803 16.4446 34.9412 16.2798C35.0574 16.148 35.1735 16.0162 35.3228 15.9009C36.0363 15.2747 37.3303 14.6815 39.4374 15.3241C39.7858 15.4395 39.9849 15.802 39.8688 16.148C39.7526 16.4941 39.3876 16.6918 39.0392 16.5764C38.2594 16.3293 37.5792 16.2963 37.0151 16.4446C37.9774 16.7907 38.6078 17.5322 38.7572 18.5044C38.9894 20.1521 37.994 21.0749 36.899 21.2397C36.7663 21.2397 36.6335 21.2562 36.5174 21.2562ZM35.6712 17.5322C35.3892 18.0595 35.2897 18.6527 35.3726 19.0976C35.4722 19.7237 36.1358 20.0203 36.6833 19.9379C37.0151 19.8885 37.5792 19.6578 37.4299 18.7021C37.3469 18.1583 37.0151 17.8123 36.4013 17.6475C36.1856 17.5651 35.9367 17.5322 35.6712 17.5322Z" fill="#FF0000"/>
<path d="M31.9753 18.0742C31.9753 21.0732 30.8969 22.5397 29.7355 24.0887C28.4912 25.7694 27.1971 27.4996 27.1971 31.5202C27.1971 31.652 27.081 31.7673 26.9482 31.7673H22.701C22.5682 31.7673 22.4521 31.652 22.4521 31.5202V29.3945C21.8051 29.5923 20.2289 29.9713 18.2048 29.9713C16.4959 29.9713 15.1521 29.6087 14.5548 29.411V31.7509C14.5548 31.8827 14.4387 31.998 14.3059 31.998H9.89275C9.76002 31.998 9.64389 31.8827 9.64389 31.7509C9.64389 29.0485 7.57002 24.55 1.86273 23.2153C1.365 23.1 1 22.6551 1 22.1278V18.2555C1 17.8271 1.24886 17.4316 1.63046 17.2503C2.095 17.0197 2.77523 16.6736 3.42228 16.2946C3.7541 16.0969 4.25183 15.1906 4.78274 14.2349C5.3966 13.1144 6.09342 11.8621 6.88979 10.9723C6.97274 10.8734 7.0557 10.791 7.13865 10.7086C6.79024 10.066 5.62888 8.96198 4.51728 8.23695C4.28501 8.08865 4.18546 7.82501 4.23524 7.56136C4.28501 7.29771 4.4841 7.09998 4.74955 7.05055C6.80683 6.6386 9.59411 6.85281 10.938 7.54488C10.9712 7.52841 11.0043 7.51193 11.0375 7.49545C12.4312 6.85281 14.0571 6.42439 15.7659 6.25961C15.8987 6.24313 16.0314 6.342 16.048 6.47382C16.048 6.4903 16.048 6.52326 16.048 6.53973L24.2273 7.79205C24.2273 7.77557 24.2439 7.74262 24.2439 7.72614C24.3103 7.59432 24.443 7.54488 24.5757 7.61079C29.2876 9.75292 31.9753 13.5758 31.9753 18.0742Z" stroke="#FF0000" stroke-width="2"/>
<mask id="path-3-inside-1_3_32" fill="white">
<path d="M17.9189 9.55177C16.4738 8.63536 15.4988 7.01403 15.4988 5.16359C15.4988 2.30864 17.7796 0 20.6002 0C23.4208 0 25.7017 2.30864 25.7017 5.16359C25.7017 7.5251 24.1172 9.53414 21.9757 10.1333"/>
</mask>
<path d="M17.9189 9.55177C16.4738 8.63536 15.4988 7.01403 15.4988 5.16359C15.4988 2.30864 17.7796 0 20.6002 0C23.4208 0 25.7017 2.30864 25.7017 5.16359C25.7017 7.5251 24.1172 9.53414 21.9757 10.1333" fill="white"/>
<path d="M18.99 7.86274C18.0936 7.29431 17.4988 6.29467 17.4988 5.16359H13.4988C13.4988 7.73339 14.854 9.97641 16.8478 11.2408L18.99 7.86274ZM17.4988 5.16359C17.4988 3.3903 18.907 2 20.6002 2V-2C16.6523 -2 13.4988 1.22697 13.4988 5.16359H17.4988ZM20.6002 2C22.2935 2 23.7017 3.3903 23.7017 5.16359H27.7017C27.7017 1.22697 24.5481 -2 20.6002 -2V2ZM23.7017 5.16359C23.7017 6.62316 22.7193 7.84848 21.4368 8.2073L22.5146 12.0594C25.5152 11.2198 27.7017 8.42704 27.7017 5.16359H23.7017Z" fill="#FF0000" mask="url(#path-3-inside-1_3_32)"/>
<path fill-rule="evenodd" clip-rule="evenodd" d="M20.0347 2.65422V2.88995C19.9778 2.91201 19.9227 2.93772 19.8697 2.96713C19.4798 3.19059 19.2548 3.56303 19.2548 4.02485C19.2548 4.63643 19.7993 4.90642 20.2161 5.11305L20.2447 5.12727C20.4697 5.23155 20.8147 5.39542 20.8147 5.5146C20.8147 5.61783 20.7697 5.654 20.7479 5.67151C20.7446 5.67422 20.7417 5.67648 20.7397 5.67847C20.6347 5.76786 20.3497 5.79765 19.8697 5.63378C19.5998 5.5444 19.2998 5.69337 19.2098 5.96153C19.1198 6.22968 19.2698 6.52763 19.5398 6.61702C19.7161 6.6754 19.8817 6.71591 20.0347 6.74205V6.94482C20.0347 7.22787 20.2747 7.46623 20.5597 7.46623C20.8447 7.46623 21.0846 7.22787 21.0846 6.94482V6.66766C21.1893 6.62489 21.274 6.57508 21.3397 6.52763C21.6697 6.30417 21.8497 5.93173 21.8497 5.5146C21.8497 4.75483 21.1597 4.41219 20.6947 4.18872C20.6439 4.15719 20.5797 4.12298 20.5168 4.0895C20.4311 4.04389 20.348 3.99962 20.3047 3.96526C20.3197 3.92057 20.3497 3.89077 20.3797 3.87588C20.5147 3.78649 20.8297 3.80139 21.1147 3.98016C21.3547 4.14403 21.6847 4.05465 21.8347 3.81629C21.9997 3.57793 21.9097 3.25018 21.6697 3.10121C21.4835 2.98738 21.2851 2.90374 21.0846 2.85176V2.65422C21.0846 2.37117 20.8447 2.13281 20.5597 2.13281C20.2747 2.13281 20.0347 2.37117 20.0347 2.65422Z" fill="#FF0000"/>
<path d="M24.0449 10.7683C23.9562 10.7683 23.8674 10.7506 23.7786 10.7154C22.5182 10.204 21.0624 9.83376 19.5534 9.62217C18.1331 9.42822 16.7661 9.37532 15.4701 9.46348C15.0795 9.49875 14.7422 9.199 14.7067 8.81109C14.6712 8.42318 14.973 8.08816 15.3636 8.0529C16.7661 7.9471 18.2396 8 19.7664 8.21159C21.382 8.44081 22.962 8.84635 24.329 9.39295C24.6841 9.53401 24.8616 9.95719 24.7196 10.3098C24.5953 10.6096 24.329 10.7683 24.0449 10.7683Z" fill="#FF0000"/>
<path d="M9.19591 17.5007C8.46591 17.5007 7.78568 17.2206 7.27136 16.7098C7.0059 16.4462 7.0059 16.0342 7.27136 15.7706C7.53681 15.5069 7.95159 15.5069 8.21704 15.7706C8.4825 16.0342 8.83091 16.1825 9.2125 16.1825C9.59409 16.1825 9.9425 16.0342 10.208 15.7706C10.7555 15.2268 10.7555 14.337 10.208 13.7932C9.9425 13.5296 9.9425 13.1176 10.208 12.854C10.4734 12.5903 10.8882 12.5903 11.1536 12.854C12.2155 13.9086 12.2155 15.6387 11.1536 16.6933C10.6227 17.2206 9.92591 17.5007 9.19591 17.5007Z" fill="#FF0000"/>
</svg>
