<?xml version="1.0" encoding="UTF-8"?>
<!DOCTYPE svg PUBLIC "-//W3C//DTD SVG 1.1//EN" "http://www.w3.org/Graphics/SVG/1.1/DTD/svg11.dtd">
<!-- Creator: CorelDRAW -->
<svg xmlns="http://www.w3.org/2000/svg" xml:space="preserve" width="40px" height="40px" version="1.1" style="shape-rendering:geometricPrecision; text-rendering:geometricPrecision; image-rendering:optimizeQuality; fill-rule:evenodd; clip-rule:evenodd"
viewBox="0 0 5.24 5.24"
 xmlns:xlink="http://www.w3.org/1999/xlink"
 xmlns:xodm="http://www.corel.com/coreldraw/odm/2003">
 <defs>
  <style type="text/css">
   <![CDATA[
    .fil0 {fill:none}
    .fil1 {fill:red;fill-rule:nonzero}
   ]]>
  </style>
 </defs>
 <g id="Capa_x0020_1">
  <metadata id="CorelCorpID_0Corel-Layer"/>
  <g id="_2586706885632">
   <rect class="fil0" width="5.24" height="5.24"/>
   <g>
    <path class="fil1" d="M3.62 2.12c0.05,0.09 0.09,0.19 0.11,0.29 0.02,0.13 0.02,0.27 0,0.4 -0.03,0.2 -0.11,0.38 -0.24,0.53 -0.12,0.14 -0.27,0.25 -0.44,0.32 -0.07,0.03 -0.14,0.05 -0.21,0.07 -0.11,0.02 -0.22,0.03 -0.34,0.01 -0.09,-0.01 -0.19,-0.03 -0.28,-0.06 -0.16,-0.06 -0.29,-0.15 -0.41,-0.27 -0.11,-0.11 -0.2,-0.25 -0.25,-0.4 -0.06,-0.15 -0.08,-0.31 -0.07,-0.48 0.04,-0.37 0.22,-0.66 0.54,-0.86 0.13,-0.08 0.27,-0.13 0.41,-0.15 0.12,-0.02 0.24,-0.02 0.37,0 0.23,0.04 0.43,0.14 0.6,0.31 0.09,0.08 0.16,0.18 0.21,0.29zm-0.03 0.48c-0.01,-0.1 -0.02,-0.19 -0.05,-0.28 -0.05,-0.15 -0.14,-0.29 -0.26,-0.4 -0.17,-0.16 -0.38,-0.24 -0.62,-0.26 -0.11,-0.01 -0.23,0.01 -0.34,0.05 -0.15,0.05 -0.29,0.13 -0.4,0.25 -0.16,0.17 -0.25,0.38 -0.27,0.61 -0.01,0.12 0.01,0.23 0.04,0.34 0.07,0.21 0.19,0.38 0.37,0.51 0.14,0.1 0.3,0.15 0.46,0.17 0.13,0.01 0.25,0 0.37,-0.04 0.11,-0.03 0.21,-0.08 0.3,-0.14 0.19,-0.14 0.31,-0.33 0.37,-0.55 0.02,-0.09 0.03,-0.17 0.03,-0.26z"/>
    <path class="fil1" d="M4.51 2.8c-0.03,0.01 -0.06,0 -0.08,-0.02 -0.09,-0.08 -0.19,-0.17 -0.28,-0.25 -0.04,-0.04 -0.09,-0.08 -0.14,-0.12 -0.02,-0.03 -0.02,-0.03 0,-0.05 0.02,-0.02 0.04,-0.05 0.06,-0.07 0.02,-0.02 0.02,-0.02 0.05,0 0.09,0.08 0.18,0.16 0.27,0.24 0,0 0.01,0.01 0.02,0.01 0,-0.01 0,-0.03 0,-0.05 -0.01,-0.12 -0.03,-0.24 -0.06,-0.36 -0.04,-0.14 -0.1,-0.27 -0.17,-0.39 -0.13,-0.24 -0.31,-0.43 -0.53,-0.59 -0.16,-0.11 -0.34,-0.19 -0.53,-0.25 -0.2,-0.06 -0.4,-0.08 -0.61,-0.07 -0.18,0.01 -0.35,0.05 -0.52,0.11 -0.18,0.07 -0.34,0.16 -0.49,0.28 -0.21,0.17 -0.38,0.38 -0.5,0.62 -0.01,0.02 -0.02,0.05 -0.03,0.07 0,0.02 -0.01,0.02 -0.04,0.01 -0.03,-0.01 -0.06,-0.02 -0.09,-0.04 -0.02,0 -0.02,-0.01 -0.02,-0.03 0.1,-0.21 0.22,-0.4 0.38,-0.57 0.2,-0.21 0.43,-0.37 0.69,-0.47 0.09,-0.04 0.19,-0.07 0.28,-0.09 0.14,-0.03 0.28,-0.05 0.42,-0.05 0.1,-0.01 0.21,0 0.32,0.02 0.14,0.02 0.28,0.05 0.41,0.11 0.22,0.08 0.43,0.21 0.61,0.37 0.17,0.15 0.31,0.33 0.42,0.54 0.07,0.14 0.13,0.28 0.17,0.44 0.02,0.11 0.04,0.22 0.05,0.33 0,0 0,0.01 0,0.02 0.03,-0.04 0.06,-0.07 0.08,-0.1 0.05,-0.06 0.09,-0.12 0.14,-0.18 0.01,-0.01 0.02,-0.01 0.03,0 0.03,0.02 0.06,0.04 0.09,0.07 0.02,0.01 0.01,0.02 0,0.03 -0.1,0.13 -0.2,0.26 -0.31,0.39 -0.01,0.02 -0.03,0.04 -0.04,0.06 -0.01,0.01 -0.03,0.02 -0.05,0.03z"/>
    <path class="fil1" d="M3.77 4.01c0.21,-0.18 0.37,-0.4 0.49,-0.65 0,-0.01 0,-0.01 0.01,-0.02 0,-0.02 0.01,-0.02 0.03,-0.01 0.03,0.01 0.07,0.03 0.1,0.04 0.02,0.01 0.02,0.01 0.01,0.03 -0.06,0.13 -0.13,0.26 -0.21,0.38 -0.13,0.17 -0.28,0.31 -0.45,0.43 -0.14,0.1 -0.29,0.18 -0.45,0.24 -0.12,0.04 -0.25,0.08 -0.38,0.1 -0.15,0.02 -0.31,0.03 -0.46,0.01 -0.1,-0.01 -0.2,-0.02 -0.3,-0.04 -0.15,-0.04 -0.29,-0.09 -0.42,-0.16 -0.2,-0.1 -0.37,-0.23 -0.52,-0.39 -0.19,-0.19 -0.34,-0.42 -0.43,-0.68 -0.05,-0.12 -0.08,-0.25 -0.1,-0.39 -0.01,-0.04 -0.02,-0.08 -0.01,-0.12 0,-0.01 0,-0.01 -0.01,-0.02 -0.01,0 -0.02,0.01 -0.03,0.02 -0.06,0.09 -0.13,0.17 -0.19,0.25 -0.01,0.02 -0.02,0.02 -0.04,0 -0.02,-0.02 -0.05,-0.04 -0.08,-0.06 -0.02,-0.01 -0.02,-0.02 -0.01,-0.04 0.12,-0.15 0.24,-0.3 0.36,-0.45 0.04,-0.04 0.08,-0.05 0.12,-0.01 0.13,0.11 0.25,0.22 0.37,0.33 0.02,0.02 0.04,0.04 0.06,0.05 0.02,0.01 0.02,0.02 0,0.04 -0.02,0.02 -0.05,0.05 -0.07,0.08 -0.01,0.01 -0.02,0.01 -0.03,0 -0.09,-0.08 -0.18,-0.16 -0.27,-0.24 -0.01,0 -0.02,-0.01 -0.03,-0.02 0,0.02 0,0.03 0,0.05 0.02,0.37 0.15,0.7 0.38,0.99 0.16,0.2 0.36,0.36 0.58,0.47 0.13,0.07 0.26,0.12 0.39,0.15 0.17,0.04 0.33,0.06 0.5,0.05 0.14,0 0.27,-0.02 0.4,-0.06 0.19,-0.05 0.36,-0.12 0.51,-0.23 0.06,-0.03 0.12,-0.08 0.18,-0.12z"/>
    <path class="fil1" d="M1.91 3.06c-0.05,-0.08 -0.08,-0.17 -0.1,-0.26 -0.02,-0.08 -0.03,-0.17 -0.02,-0.25 0.02,-0.18 0.09,-0.34 0.21,-0.48 0.08,-0.08 0.18,-0.15 0.28,-0.2 0.05,-0.02 0.11,-0.04 0.17,-0.05 0.05,-0.01 0.11,-0.02 0.17,-0.02 0.14,0 0.26,0.03 0.38,0.09 0.19,0.1 0.32,0.25 0.4,0.45 0.04,0.12 0.06,0.24 0.04,0.37 -0.04,0.32 -0.21,0.56 -0.52,0.68 -0.33,0.14 -0.71,0.04 -0.94,-0.23 -0.02,-0.03 -0.04,-0.07 -0.07,-0.1zm1.36 -0.59c-0.01,-0.03 -0.02,-0.07 -0.04,-0.1 -0.09,-0.23 -0.26,-0.36 -0.5,-0.4 -0.1,-0.02 -0.2,-0.01 -0.3,0.02 -0.13,0.03 -0.24,0.1 -0.32,0.21 -0.09,0.1 -0.14,0.21 -0.15,0.35 -0.02,0.08 -0.01,0.16 0.01,0.25 0.03,0.12 0.1,0.23 0.2,0.32 0.12,0.11 0.26,0.16 0.43,0.17 0.05,0.01 0.11,0 0.16,-0.01 0.14,-0.03 0.25,-0.1 0.35,-0.2 0.1,-0.1 0.15,-0.23 0.17,-0.37 0.01,-0.08 0.01,-0.15 -0.01,-0.24z"/>
    <path class="fil1" d="M2.31 2.6c-0.02,-0.04 -0.03,-0.08 -0.03,-0.13 0,-0.06 -0.01,-0.11 0.02,-0.16 0.04,-0.09 0.11,-0.13 0.2,-0.14 0.05,0 0.05,0 0.05,-0.04 0,-0.08 -0.02,-0.07 0.07,-0.07 0.02,0 0.04,0 0.05,0 0.03,0 0.04,0.01 0.04,0.03 0,0.02 0,0.04 0,0.06 -0.01,0.02 0,0.02 0.02,0.03 0.09,0 0.15,0.04 0.2,0.11 0.03,0.05 0.03,0.12 0.03,0.18 0,0.01 -0.01,0.01 -0.03,0.01 -0.03,0 -0.07,0 -0.1,0 -0.02,0 -0.03,-0.01 -0.03,-0.02 0,-0.03 0.01,-0.06 0,-0.08 -0.02,-0.03 -0.04,-0.05 -0.07,-0.05 -0.07,0 -0.15,0 -0.22,0 -0.04,0 -0.06,0.02 -0.07,0.06 -0.01,0.03 -0.01,0.07 0,0.1 0.01,0.04 0.03,0.06 0.07,0.06 0.08,0 0.16,0 0.23,0 0.09,0 0.19,0.07 0.21,0.16 0.02,0.08 0.02,0.16 -0.01,0.23 -0.04,0.09 -0.11,0.14 -0.21,0.14 -0.06,0 -0.05,-0.01 -0.05,0.05 0,0.05 0,0.05 -0.06,0.05 -0.02,0 -0.04,0 -0.07,0 -0.03,0 -0.03,0 -0.03,-0.03 0,-0.02 0,-0.03 0,-0.05 0,-0.02 -0.01,-0.02 -0.02,-0.02 -0.1,-0.01 -0.17,-0.06 -0.21,-0.14 -0.02,-0.05 -0.01,-0.1 -0.01,-0.15 0,-0.01 0.01,-0.02 0.02,-0.02 0.04,0 0.08,0 0.11,0 0.02,0 0.02,0.01 0.03,0.03 0,0.02 -0.01,0.05 0,0.07 0.01,0.04 0.04,0.05 0.07,0.05 0.07,0 0.15,0 0.22,0 0.03,0 0.06,-0.02 0.07,-0.06 0.01,-0.03 0.01,-0.06 0,-0.1 -0.01,-0.03 -0.03,-0.05 -0.07,-0.05 -0.07,0 -0.14,0 -0.21,0 -0.08,0 -0.15,-0.03 -0.21,-0.11z"/>
   </g>
  </g>
 </g>
</svg>
