<?xml version="1.0" encoding="UTF-8"?>
<!DOCTYPE svg PUBLIC "-//W3C//DTD SVG 1.1//EN" "http://www.w3.org/Graphics/SVG/1.1/DTD/svg11.dtd">
<!-- Creator: CorelDRAW -->
<svg xmlns="http://www.w3.org/2000/svg" xml:space="preserve" width="40px" height="40px" version="1.1" style="shape-rendering:geometricPrecision; text-rendering:geometricPrecision; image-rendering:optimizeQuality; fill-rule:evenodd; clip-rule:evenodd"
viewBox="0 0 4.53 4.53"
 xmlns:xlink="http://www.w3.org/1999/xlink"
 xmlns:xodm="http://www.corel.com/coreldraw/odm/2003">
 <defs>
  <style type="text/css">
   <![CDATA[
    .str0 {stroke:red;stroke-width:0.04;stroke-miterlimit:22.9256}
    .fil0 {fill:none}
    .fil2 {fill:none;fill-rule:nonzero}
    .fil1 {fill:red;fill-rule:nonzero}
   ]]>
  </style>
 </defs>
 <g id="Capa_x0020_1">
  <metadata id="CorelCorpID_0Corel-Layer"/>
  <g id="_1740108576336">
   <rect class="fil0" width="4.53" height="4.53"/>
   <g>
    <path class="fil1" d="M1.53 4.14c-0.01,0 -0.02,-0.01 -0.02,-0.01l0.02 0.01zm0 0l-0.02 -0.01 0.02 0.01zm0 0l-0.01 0.01 -0.01 -0.02 0.02 0.01zm0 0c0.01,0.01 0.01,0 0.01,0 0,0 0,0 0,-0.01 0,-0.05 0,-0.1 0,-0.15 0,-0.03 0,-0.06 0,-0.1 0,0 0,-0.01 0,-0.01 0,0 0,0 -0.01,0 -0.14,0 -0.28,0 -0.42,0 -0.01,0 -0.01,0 -0.01,0 -0.01,0 -0.01,0.01 -0.01,0.02 0,0 0,0.01 0,0.02 0,0.07 0,0.15 0,0.22 0,0.01 0,0.01 0,0.01 0.01,0 0.01,0 0.01,0l0 0c0,0 0,0 0,0 0,0 0.01,0 0.01,0 0.02,-0.01 0.03,-0.02 0.05,-0.03 0.03,-0.01 0.06,-0.03 0.08,-0.04 0.05,-0.03 0.1,-0.03 0.14,0 0.04,0.02 0.08,0.03 0.12,0.06 0,0 0,0 0.01,0l0.02 0.01zm-1.04 -3.6c0,0.59 0,1.18 0,1.77 0,0.19 0,0.38 0,0.56 0,0.07 0,0.14 0,0.21 0,0.17 0,0.33 0,0.5 0,0.17 0.12,0.29 0.29,0.29l0 0c0.05,0 0.09,0 0.14,0 0.01,0 0.02,0 0.02,0 0.01,0.01 0.01,0.01 0.01,0.03 0,0.07 0,0.14 0,0.22l0 0.01c0,0.06 0.03,0.11 0.07,0.14 0.04,0.03 0.1,0.03 0.16,0 0.01,-0.01 0.03,-0.02 0.04,-0.03 0.02,-0.01 0.05,-0.02 0.07,-0.03 0.01,-0.01 0.02,-0.01 0.03,-0.01 0.01,0 0.02,0 0.03,0.01 0.04,0.02 0.08,0.04 0.12,0.06 0.1,0.05 0.2,-0.01 0.21,-0.11 0.01,-0.07 0.01,-0.13 0.01,-0.2 0,-0.02 -0.01,-0.04 -0.01,-0.06 0,-0.02 0.01,-0.02 0.01,-0.03 0,0 0.01,0 0.02,0 0.02,0 0.03,0 0.05,0 0,0 0.01,0 0.02,0 0.12,0 0.25,0 0.37,0 0.31,0 0.61,0 0.92,0 0.09,0 0.16,-0.03 0.21,-0.08 0.06,-0.06 0.09,-0.13 0.09,-0.22 0,-0.14 0,-0.28 0,-0.43 0,-0.09 0,-0.18 0,-0.27l0 0c0,-0.02 0,-0.03 -0.01,-0.05 -0.01,-0.01 -0.01,-0.03 -0.03,-0.04 -0.01,0 -0.02,-0.01 -0.04,-0.01 -0.02,0 -0.03,0.01 -0.04,0.02 -0.01,0.01 -0.02,0.02 -0.03,0.04 0,0.01 0,0.03 0,0.05 0,0 0,0 0,0 0,0.06 0,0.13 0,0.19 0,0.17 0,0.34 0,0.51 0,0 0,0 0,0 0,0.02 0,0.05 -0.01,0.07 -0.02,0.03 -0.04,0.05 -0.06,0.06 -0.02,0.01 -0.04,0.02 -0.07,0.02 -0.3,0 -0.6,0 -0.9,0 -0.34,0 -0.69,0 -1.04,0 0,0 -0.01,0 -0.02,0 0,0 -0.01,0 -0.01,0 -0.01,0 -0.02,-0.01 -0.02,-0.01 0,0 0,0 0,-0.01 0,-0.01 0,-0.01 0,-0.02 0,-0.01 0,-0.01 0,-0.02 0,-0.99 0,-1.97 0,-2.96 0,-0.1 0,-0.19 0,-0.29 0,-0.01 0,-0.02 0,-0.03 0,0 0,0 0,-0.01 0.01,0 0.01,0 0.01,0 0.01,0 0.02,0 0.03,0l1.94 0c0,0 0,0 0,0 0.01,0 0.01,0 0.02,0 0.07,0 0.13,0.06 0.13,0.13 0,0.02 0,0.03 0,0.04 0,0 0,0.01 0,0.01 0,0.02 0,0.03 0,0.05 0,0.02 0.01,0.04 0.02,0.05 0.01,0.02 0.03,0.02 0.05,0.02 0.04,0 0.07,-0.03 0.08,-0.07 0,-0.03 0,-0.06 0,-0.09 -0.01,-0.17 -0.14,-0.28 -0.29,-0.28 -0.31,0 -0.63,0 -0.94,0 -0.12,0 -0.24,0 -0.36,0 -0.09,0 -0.17,0 -0.25,0 -0.25,0 -0.51,0 -0.77,0 -0.06,0 -0.11,0.02 -0.16,0.06 -0.08,0.06 -0.11,0.14 -0.11,0.24zm2.11 2.08c0.16,0 0.31,0 0.47,0 0.04,0 0.09,0 0.13,0 0.06,0 0.11,0 0.17,0 0.12,0 0.24,0 0.36,0 0.09,0 0.17,-0.03 0.22,-0.08 0.06,-0.05 0.09,-0.12 0.09,-0.21 0,-0.25 0,-0.51 0,-0.76 0,-0.12 0,-0.24 0,-0.36 0,-0.03 0,-0.06 -0.01,-0.09 -0.04,-0.13 -0.15,-0.21 -0.29,-0.21 -0.37,0 -0.74,0 -1.12,0 -0.21,0 -0.43,0 -0.65,0 -0.03,0 -0.06,0.01 -0.09,0.01 -0.12,0.03 -0.21,0.14 -0.21,0.27 0,0.38 0,0.76 0,1.15 0,0.16 0.13,0.28 0.29,0.28 0.02,0 0.02,0 0.03,0.01 0,0 0,0.01 0,0.02 0,0.12 0,0.24 0,0.36 0,0.06 0.05,0.1 0.11,0.1 0.06,0 0.08,-0.03 0.11,-0.06l0 0c0.12,-0.14 0.23,-0.27 0.35,-0.41 0,-0.01 0.01,-0.01 0.02,-0.01 0,-0.01 0.01,-0.01 0.02,-0.01zm-1.69 1.11l-0.12 0c0,0 0,0 0,0 -0.05,0 -0.09,-0.02 -0.11,-0.04 -0.03,-0.03 -0.04,-0.07 -0.04,-0.12 0,-0.79 0,-1.57 0,-2.36 0,-0.11 0,-0.23 0,-0.34 0,-0.03 0,-0.06 0,-0.09 0,-0.09 0,-0.17 0,-0.26 0,-0.04 0.01,-0.08 0.04,-0.1 0.02,-0.02 0.06,-0.04 0.1,-0.04 0.02,0 0.04,0 0.06,0 0.03,0 0.06,0 0.09,0 0.01,0 0.01,0 0.01,0 0.01,0.01 0.01,0.01 0.01,0.02 0,0.02 0,0.04 0,0.06 0,0 0,0.01 0,0.02l0 3.2c0,0.02 0,0.03 0,0.03 0,0.01 0,0.01 -0.01,0.01 0,0 0,0 -0.01,0 0,0.01 -0.01,0.01 -0.02,0.01z"/>
    <path id="_1" class="fil2 str0" d="M1.53 4.14c-0.01,0 -0.02,-0.01 -0.02,-0.01m0.02 0.01l-0.02 -0.01m0.02 0.01l-0.01 0.01 -0.01 -0.02m0.02 0.01c0.01,0.01 0.01,0 0.01,0 0,0 0,0 0,-0.01 0,-0.05 0,-0.1 0,-0.15 0,-0.03 0,-0.06 0,-0.1 0,0 0,-0.01 0,-0.01 0,0 0,0 -0.01,0 -0.14,0 -0.28,0 -0.42,0 -0.01,0 -0.01,0 -0.01,0 -0.01,0 -0.01,0.01 -0.01,0.02 0,0 0,0.01 0,0.02 0,0.07 0,0.15 0,0.22 0,0.01 0,0.01 0,0.01 0.01,0 0.01,0 0.01,0l0 0c0,0 0,0 0,0 0,0 0.01,0 0.01,0 0.02,-0.01 0.03,-0.02 0.05,-0.03 0.03,-0.01 0.06,-0.03 0.08,-0.04 0.05,-0.03 0.1,-0.03 0.14,0 0.04,0.02 0.08,0.03 0.12,0.06 0,0 0,0 0.01,0m-1.02 -3.59c0,0.59 0,1.18 0,1.77 0,0.19 0,0.38 0,0.56 0,0.07 0,0.14 0,0.21 0,0.17 0,0.33 0,0.5 0,0.17 0.12,0.29 0.29,0.29l0 0c0.05,0 0.09,0 0.14,0 0.01,0 0.02,0 0.02,0 0.01,0.01 0.01,0.01 0.01,0.03 0,0.07 0,0.14 0,0.22l0 0.01c0,0.06 0.03,0.11 0.07,0.14 0.04,0.03 0.1,0.03 0.16,0 0.01,-0.01 0.03,-0.02 0.04,-0.03 0.02,-0.01 0.05,-0.02 0.07,-0.03 0.01,-0.01 0.02,-0.01 0.03,-0.01 0.01,0 0.02,0 0.03,0.01 0.04,0.02 0.08,0.04 0.12,0.06 0.1,0.05 0.2,-0.01 0.21,-0.11 0.01,-0.07 0.01,-0.13 0.01,-0.2 0,-0.02 -0.01,-0.04 -0.01,-0.06 0,-0.02 0.01,-0.02 0.01,-0.03 0,0 0.01,0 0.02,0 0.02,0 0.03,0 0.05,0 0,0 0.01,0 0.02,0 0.12,0 0.25,0 0.37,0 0.31,0 0.61,0 0.92,0 0.09,0 0.16,-0.03 0.21,-0.08 0.06,-0.06 0.09,-0.13 0.09,-0.22 0,-0.14 0,-0.28 0,-0.43 0,-0.09 0,-0.18 0,-0.27l0 0c0,-0.02 0,-0.03 -0.01,-0.05 -0.01,-0.01 -0.01,-0.03 -0.03,-0.04 -0.01,0 -0.02,-0.01 -0.04,-0.01 -0.02,0 -0.03,0.01 -0.04,0.02 -0.01,0.01 -0.02,0.02 -0.03,0.04 0,0.01 0,0.03 0,0.05 0,0 0,0 0,0 0,0.06 0,0.13 0,0.19 0,0.17 0,0.34 0,0.51 0,0 0,0 0,0 0,0.02 0,0.05 -0.01,0.07 -0.02,0.03 -0.04,0.05 -0.06,0.06 -0.02,0.01 -0.04,0.02 -0.07,0.02 -0.3,0 -0.6,0 -0.9,0 -0.34,0 -0.69,0 -1.04,0 0,0 -0.01,0 -0.02,0 0,0 -0.01,0 -0.01,0 -0.01,0 -0.02,-0.01 -0.02,-0.01 0,0 0,0 0,-0.01 0,-0.01 0,-0.01 0,-0.02 0,-0.01 0,-0.01 0,-0.02 0,-0.99 0,-1.97 0,-2.96 0,-0.1 0,-0.19 0,-0.29 0,-0.01 0,-0.02 0,-0.03 0,0 0,0 0,-0.01 0.01,0 0.01,0 0.01,0 0.01,0 0.02,0 0.03,0l1.94 0c0,0 0,0 0,0 0.01,0 0.01,0 0.02,0 0.07,0 0.13,0.06 0.13,0.13 0,0.02 0,0.03 0,0.04 0,0 0,0.01 0,0.01 0,0.02 0,0.03 0,0.05 0,0.02 0.01,0.04 0.02,0.05 0.01,0.02 0.03,0.02 0.05,0.02 0.04,0 0.07,-0.03 0.08,-0.07 0,-0.03 0,-0.06 0,-0.09 -0.01,-0.17 -0.14,-0.28 -0.29,-0.28 -0.31,0 -0.63,0 -0.94,0 -0.12,0 -0.24,0 -0.36,0 -0.09,0 -0.17,0 -0.25,0 -0.25,0 -0.51,0 -0.77,0 -0.06,0 -0.11,0.02 -0.16,0.06 -0.08,0.06 -0.11,0.14 -0.11,0.24zm2.11 2.08c0.16,0 0.31,0 0.47,0 0.04,0 0.09,0 0.13,0 0.06,0 0.11,0 0.17,0 0.12,0 0.24,0 0.36,0 0.09,0 0.17,-0.03 0.22,-0.08 0.06,-0.05 0.09,-0.12 0.09,-0.21 0,-0.25 0,-0.51 0,-0.76 0,-0.12 0,-0.24 0,-0.36 0,-0.03 0,-0.06 -0.01,-0.09 -0.04,-0.13 -0.15,-0.21 -0.29,-0.21 -0.37,0 -0.74,0 -1.12,0 -0.21,0 -0.43,0 -0.65,0 -0.03,0 -0.06,0.01 -0.09,0.01 -0.12,0.03 -0.21,0.14 -0.21,0.27 0,0.38 0,0.76 0,1.15 0,0.16 0.13,0.28 0.29,0.28 0.02,0 0.02,0 0.03,0.01 0,0 0,0.01 0,0.02 0,0.12 0,0.24 0,0.36 0,0.06 0.05,0.1 0.11,0.1 0.06,0 0.08,-0.03 0.11,-0.06l0 0c0.12,-0.14 0.23,-0.27 0.35,-0.41 0,-0.01 0.01,-0.01 0.02,-0.01 0,-0.01 0.01,-0.01 0.02,-0.01zm-1.69 1.11l-0.12 0c0,0 0,0 0,0 -0.05,0 -0.09,-0.02 -0.11,-0.04 -0.03,-0.03 -0.04,-0.07 -0.04,-0.12 0,-0.79 0,-1.57 0,-2.36 0,-0.11 0,-0.23 0,-0.34 0,-0.03 0,-0.06 0,-0.09 0,-0.09 0,-0.17 0,-0.26 0,-0.04 0.01,-0.08 0.04,-0.1 0.02,-0.02 0.06,-0.04 0.1,-0.04 0.02,0 0.04,0 0.06,0 0.03,0 0.06,0 0.09,0 0.01,0 0.01,0 0.01,0 0.01,0.01 0.01,0.01 0.01,0.02 0,0.02 0,0.04 0,0.06 0,0 0,0.01 0,0.02l0 3.2c0,0.02 0,0.03 0,0.03 0,0.01 0,0.01 -0.01,0.01 0,0 0,0 -0.01,0 0,0.01 -0.01,0.01 -0.02,0.01z"/>
   </g>
  </g>
 </g>
</svg>
