<?xml version="1.0" encoding="UTF-8"?>
<!DOCTYPE svg PUBLIC "-//W3C//DTD SVG 1.1//EN" "http://www.w3.org/Graphics/SVG/1.1/DTD/svg11.dtd">
<!-- Creator: CorelDRAW -->
<svg xmlns="http://www.w3.org/2000/svg" xml:space="preserve" width="756px" height="755px" version="1.1" style="shape-rendering:geometricPrecision; text-rendering:geometricPrecision; image-rendering:optimizeQuality; fill-rule:evenodd; clip-rule:evenodd"
viewBox="0 0 3.25 3.25"
 xmlns:xlink="http://www.w3.org/1999/xlink"
 xmlns:xodm="http://www.corel.com/coreldraw/odm/2003">
 <defs>
  <style type="text/css">
   <![CDATA[
    .fil0 {fill:#EE000A;fill-rule:nonzero}
   ]]>
  </style>
 </defs>
 <g id="Capa_x0020_1">
  <metadata id="CorelCorpID_0Corel-Layer"/>
  <path class="fil0" d="M0.14 1.3c-0.08,0 -0.14,0.06 -0.14,0.14l0 0.37c0,0.08 0.06,0.14 0.14,0.14l0.37 0c0.08,0 0.14,0.06 0.14,0.14l0 0.37c0,0.08 0.06,0.14 0.14,0.14l0.37 0c0.08,0 0.14,0.07 0.14,0.14l0 0.37c0,0.08 0.07,0.14 0.14,0.14l0.37 0c0.08,0 0.14,-0.06 0.14,-0.14l0 -0.37c0,-0.07 0.07,-0.14 0.14,-0.14l0.37 0c0.08,0 0.14,-0.06 0.14,-0.14l0 -0.34c0,-0.09 0.08,-0.17 0.17,-0.17l0.34 0c0.08,0 0.14,-0.06 0.14,-0.14l0 -0.37c0,-0.08 -0.06,-0.14 -0.14,-0.14l-0.37 0c-0.07,0 -0.14,-0.06 -0.14,-0.14l0 -0.37c0,-0.08 -0.06,-0.14 -0.14,-0.14l-0.34 0c-0.09,0 -0.17,-0.08 -0.17,-0.17l0 -0.34c0,-0.08 -0.06,-0.14 -0.14,-0.14l-0.37 0c-0.07,0 -0.14,0.06 -0.14,0.14l0 0.37c0,0.08 -0.06,0.14 -0.14,0.14l-0.37 0c-0.08,0 -0.14,0.06 -0.14,0.14l0 0.37c0,0.08 -0.06,0.14 -0.14,0.14l-0.37 0 0 0zm1.98 0.65c-0.1,0 -0.17,-0.08 -0.17,-0.17l0 -0.34c0,-0.08 0.06,-0.14 0.14,-0.14l0.34 0c0.09,0 0.17,0.07 0.17,0.17l0 0.34c0,0.08 -0.06,0.14 -0.14,0.14l-0.34 0zm-1.33 0c-0.08,0 -0.14,-0.06 -0.14,-0.14l0 -0.37c0,-0.08 0.06,-0.14 0.14,-0.14l0.37 0c0.08,0 0.14,-0.06 0.14,-0.14l0 -0.34c0,-0.1 0.08,-0.17 0.17,-0.17l0.34 0c0.08,0 0.14,0.06 0.14,0.14l0 0.37c0,0.08 -0.06,0.14 -0.14,0.14l-0.37 0c-0.08,0 -0.14,0.06 -0.14,0.14l0 0.37c0,0.08 0.06,0.14 0.14,0.14l0.37 0c0.08,0 0.14,0.06 0.14,0.14l0 0.34c0,0.1 -0.07,0.17 -0.17,0.17l-0.34 0c-0.08,0 -0.14,-0.06 -0.14,-0.14l0 -0.37c0,-0.08 -0.06,-0.14 -0.14,-0.14l-0.37 0z"/>
 </g>
</svg>
