<svg width="122" height="32" viewBox="0 0 122 32" fill="none" xmlns="http://www.w3.org/2000/svg">
<path d="M26.0884 2.60714C25.971 2.53702 25.8375 2.49857 25.7008 2.49555C25.5641 2.49254 25.429 2.52507 25.3087 2.58996L13.2367 9.095L1.16474 2.58996C1.04439 2.52512 0.909279 2.49263 0.772611 2.49564C0.635944 2.49866 0.502397 2.53709 0.385026 2.60717C0.267655 2.67725 0.170475 2.77658 0.102988 2.89546C0.0355008 3.01435 1.62812e-05 3.1487 9.38222e-09 3.2854V24.2448C-2.16416e-05 24.3853 0.0374293 24.5233 0.108493 24.6445C0.179556 24.7657 0.28166 24.8657 0.404277 24.9343L12.851 31.8994C12.8543 31.9012 12.8579 31.9018 12.8612 31.9035C12.9167 31.9339 12.9756 31.9575 13.0367 31.9739L13.0455 31.9756C13.171 32.008 13.3026 32.008 13.4281 31.9756L13.4369 31.9739C13.498 31.9575 13.5569 31.9339 13.6123 31.9035C13.6156 31.9018 13.6193 31.9012 13.6226 31.8994L26.0693 24.9343C26.1919 24.8657 26.294 24.7657 26.3651 24.6445C26.4361 24.5233 26.4736 24.3853 26.4736 24.2448V3.2854C26.4736 3.14867 26.4381 3.01428 26.3706 2.89539C26.303 2.7765 26.2058 2.67717 26.0884 2.60714V2.60714ZM1.58003 4.60841L12.4467 10.4641V29.8624L1.58003 23.7817V4.60841ZM24.8934 23.7817L14.0267 29.8624V10.4641L24.8934 4.60841V23.7817Z" fill="#4D4D4D"/>
<path d="M2.22327 1.67482L12.8589 7.40607C12.8628 7.40819 12.8671 7.40875 12.871 7.4108C12.9238 7.43843 12.9795 7.46004 13.0371 7.47523C13.0439 7.47699 13.0506 7.47779 13.0575 7.47934C13.1145 7.49288 13.1728 7.50002 13.2314 7.50064L13.2329 7.50085H13.2336H13.2342L13.2358 7.50064C13.2947 7.50002 13.3533 7.49282 13.4106 7.47917C13.417 7.4777 13.4233 7.47694 13.4297 7.47529C13.4874 7.46011 13.5432 7.43848 13.5961 7.4108C13.6001 7.40875 13.6043 7.40819 13.6083 7.40607L24.592 1.48733C24.6839 1.43843 24.7652 1.37185 24.8313 1.29142C24.8973 1.211 24.9468 1.11831 24.977 1.01869C25.0071 0.919069 25.0173 0.814475 25.0068 0.710919C24.9964 0.607362 24.9656 0.506885 24.9163 0.415261C24.8669 0.323636 24.7999 0.242669 24.7192 0.177014C24.6384 0.111359 24.5455 0.0623093 24.4457 0.0326825C24.3459 0.00305568 24.2413 -0.00656386 24.1378 0.00437692C24.0343 0.0153177 23.9339 0.0466026 23.8426 0.0964347L13.2337 5.81317L2.97272 0.283929C2.78838 0.185804 2.57269 0.164657 2.37281 0.225113C2.17293 0.285568 2.00511 0.422707 1.90606 0.606544C1.807 0.790382 1.78476 1.00596 1.84421 1.20615C1.90365 1.40633 2.03994 1.57484 2.22327 1.67482V1.67482Z" fill="#4D4D4D"/>
<path d="M54.4736 6.97375H56.0361V12.7661H59.4997V14.08H54.4736V6.97375Z" fill="#4D4D4D"/>
<path d="M60.376 6.97375H61.9384V14.08H60.376V6.97375Z" fill="#4D4D4D"/>
<path d="M63.3126 6.97375H66.6568C68.0102 6.97375 68.9258 7.41149 68.9258 8.73519C68.9341 9.05111 68.8463 9.36211 68.6739 9.62696C68.5015 9.89182 68.2526 10.098 67.9603 10.2182C68.3543 10.3182 68.7006 10.5534 68.9389 10.8827C69.1771 11.2119 69.2923 11.6144 69.2642 12.0198C69.2642 13.4629 68.0399 14.08 66.7562 14.08H63.3125L63.3126 6.97375ZM64.875 9.85013H66.4575C67.0051 9.85013 67.4131 9.60116 67.4131 9.00408C67.4131 8.32721 66.8955 8.18786 66.3381 8.18786H64.875V9.85013ZM64.875 12.8657H66.5471C67.1641 12.8657 67.7016 12.6665 67.7016 11.9301C67.7016 11.2035 67.2439 10.9149 66.5769 10.9149H64.875V12.8657Z" fill="#4D4D4D"/>
<path d="M70.3203 6.97403H74.1523C74.4199 6.95648 74.6883 6.99426 74.9407 7.08501C75.193 7.17576 75.424 7.31753 75.6192 7.5015C75.8144 7.68546 75.9695 7.90766 76.075 8.15424C76.1805 8.40082 76.2341 8.66649 76.2324 8.93469C76.264 9.31352 76.1714 9.69235 75.9684 10.0138C75.7655 10.3352 75.4633 10.5818 75.1076 10.7161V10.736C75.8741 10.9353 76.093 11.6816 76.1427 12.3983C76.1725 12.8463 76.1627 13.6821 76.4414 14.0802H74.8786C74.6895 13.6323 74.7094 12.9457 74.6299 12.3784C74.5204 11.6317 74.2318 11.3033 73.4456 11.3033H71.8828V14.0802H70.3204L70.3203 6.97403ZM71.8827 10.1887H73.5947C74.2913 10.1887 74.6695 9.89004 74.6695 9.17354C74.6695 8.48679 74.2913 8.18814 73.5947 8.18814H71.8827V10.1887Z" fill="#4D4D4D"/>
<path d="M80.6926 6.80457C82.8921 6.80457 84.186 8.44662 84.186 10.5567C84.186 12.6072 82.8921 14.2491 80.6926 14.2491C78.4931 14.2491 77.1992 12.6071 77.1992 10.5567C77.1992 8.44662 78.4931 6.80457 80.6926 6.80457ZM80.6926 12.9353C82.0961 12.9353 82.6235 11.7411 82.6235 10.5567C82.6235 9.31259 82.0961 8.11814 80.6926 8.11814C79.2891 8.11814 78.7618 9.31273 78.7618 10.5567C78.7618 11.7411 79.2894 12.9353 80.6926 12.9353Z" fill="#4D4D4D"/>
<path d="M88.0195 6.97375H91.085C92.9263 6.97375 94.3098 8.12828 94.3098 10.4871C94.3098 12.5472 93.2548 14.08 91.085 14.08H88.0195V6.97375ZM89.582 12.7661H90.9753C91.8812 12.7661 92.7472 12.2089 92.7472 10.6363C92.7472 9.20301 92.2493 8.28718 90.6967 8.28718H89.5821L89.582 12.7661Z" fill="#4D4D4D"/>
<path d="M95.3955 6.97375H100.71V8.28733H96.958V9.81021H100.402V11.0243H96.958V12.7661H100.79V14.08H95.3955V6.97375Z" fill="#4D4D4D"/>
<path d="M34.4736 17.919H38.3056C38.5732 17.9014 38.8416 17.9392 39.094 18.03C39.3463 18.1207 39.5773 18.2625 39.7725 18.4465C39.9676 18.6304 40.1228 18.8526 40.2283 19.0992C40.3338 19.3458 40.3874 19.6114 40.3857 19.8796C40.4173 20.2585 40.3247 20.6373 40.1217 20.9588C39.9187 21.2802 39.6166 21.5268 39.2609 21.6611V21.681C40.0274 21.8802 40.2463 22.6265 40.296 23.3433C40.3258 23.7913 40.316 24.6271 40.5947 25.0252H39.0319C38.8428 24.5773 38.8627 23.8906 38.7832 23.3233C38.6736 22.5767 38.3851 22.2483 37.5989 22.2483H36.0362V25.0252H34.4737L34.4736 17.919ZM36.0361 21.1337H37.748C38.4446 21.1337 38.8228 20.835 38.8228 20.1185C38.8228 19.4318 38.4446 19.1331 37.748 19.1331H36.0362L36.0361 21.1337Z" fill="#4D4D4D"/>
<path d="M41.6602 17.9192H46.975V19.2328H43.2228V20.7557H46.6665V21.9698H43.2228V23.7116H47.0548V25.0254H41.6602V17.9192Z" fill="#4D4D4D"/>
<path d="M52.8488 20.3084C52.7798 19.9505 52.5857 19.6288 52.3012 19.4008C52.0168 19.1729 51.6605 19.0536 51.2961 19.0642C49.8929 19.0642 49.3652 20.2588 49.3652 21.5029C49.3652 22.6872 49.8929 23.8814 51.2961 23.8814C52.2517 23.8814 52.789 23.2247 52.9084 22.289H54.4215C54.2622 24.0606 53.0379 25.1954 51.2961 25.1954C49.0966 25.1954 47.8027 23.5533 47.8027 21.503C47.8027 19.3929 49.0966 17.7509 51.2961 17.7509C52.8585 17.7509 54.1725 18.6663 54.3616 20.3086L52.8488 20.3084Z" fill="#4D4D4D"/>
<path d="M55.4873 17.9192H57.0497V23.7116H60.5133V25.0254H55.4873V17.9192Z" fill="#4D4D4D"/>
<path d="M63.3309 17.9192H64.9334L67.5909 25.0254H65.9685L65.4311 23.443H62.7737L62.2163 25.0254H60.6338L63.3309 17.9192ZM63.1816 22.2787H65.0229L64.1269 19.671H64.107L63.1816 22.2787Z" fill="#4D4D4D"/>
<path d="M68.209 17.9192H70.4085L72.0708 22.806H72.0907L73.6631 17.9192H75.8628V25.0254H74.3998V19.9894H74.3798L72.638 25.0254H71.4338L69.692 20.0392H69.672V25.0254H68.209V17.9192Z" fill="#4D4D4D"/>
<path d="M79.1775 17.9192H80.78L83.4375 25.0254H81.8151L81.2776 23.443H78.6204L78.0629 25.0254H76.4805L79.1775 17.9192ZM79.0282 22.2787H80.8695L79.9737 19.671H79.9537L79.0282 22.2787Z" fill="#4D4D4D"/>
<path d="M88.7941 20.3084C88.7251 19.9505 88.531 19.6288 88.2466 19.4008C87.9621 19.1729 87.6058 19.0536 87.2415 19.0642C85.8382 19.0642 85.3106 20.2588 85.3106 21.5029C85.3106 22.6872 85.8382 23.8814 87.2415 23.8814C88.1971 23.8814 88.7343 23.2247 88.8537 22.289H90.3668C90.2075 24.0606 88.9832 25.1954 87.2415 25.1954C85.042 25.1954 83.748 23.5533 83.748 21.503C83.748 19.3929 85.042 17.7509 87.2415 17.7509C88.8039 17.7509 90.1178 18.6663 90.3069 20.3086L88.7941 20.3084Z" fill="#4D4D4D"/>
<path d="M91.4326 17.9192H92.9951V25.0254H91.4326V17.9192Z" fill="#4D4D4D"/>
<path d="M97.554 17.7499C99.7535 17.7499 101.047 19.3919 101.047 21.5021C101.047 23.5525 99.7535 25.1944 97.554 25.1944C95.3545 25.1944 94.0605 23.5523 94.0605 21.5021C94.0605 19.3919 95.3545 17.7499 97.554 17.7499ZM97.554 23.8806C98.9575 23.8806 99.4849 22.6864 99.4849 21.5021C99.4849 20.2579 98.9575 19.0635 97.554 19.0635C96.1505 19.0635 95.6231 20.258 95.6231 21.5021C95.6231 22.6862 96.1508 23.8806 97.554 23.8806Z" fill="#4D4D4D"/>
<path d="M102.113 17.9192H103.666L106.632 22.6866H106.652V17.9192H108.115V25.0254H106.552L103.596 20.2679H103.576V25.0254H102.113V17.9192Z" fill="#4D4D4D"/>
<path d="M109.489 17.9192H114.804V19.2328H111.052V20.7557H114.495V21.9698H111.052V23.7116H114.884V25.0254H109.489V17.9192Z" fill="#4D4D4D"/>
<path d="M117.004 22.6665C117.004 23.6119 117.741 23.9803 118.577 23.9803C119.124 23.9803 119.96 23.821 119.96 23.0944C119.96 22.3281 118.895 22.1984 117.85 21.9199C116.795 21.6414 115.73 21.2332 115.73 19.8996C115.73 18.4465 117.104 17.7499 118.388 17.7499C119.871 17.7499 121.234 18.3967 121.234 20.039H119.721C119.672 19.1829 119.065 18.964 118.318 18.964C117.82 18.964 117.243 19.173 117.243 19.7701C117.243 20.3175 117.582 20.3872 119.363 20.8451C119.881 20.9744 121.473 21.3028 121.473 22.9154C121.473 24.2192 120.448 25.1944 118.517 25.1944C116.945 25.1944 115.471 24.4181 115.491 22.6665H117.004Z" fill="#4D4D4D"/>
</svg>
