<?xml version="1.0" encoding="UTF-8"?>
<!DOCTYPE svg PUBLIC "-//W3C//DTD SVG 1.1//EN" "http://www.w3.org/Graphics/SVG/1.1/DTD/svg11.dtd">
<!-- Creator: CorelDRAW -->
<svg xmlns="http://www.w3.org/2000/svg" xml:space="preserve" width="741px" height="293px" version="1.1" style="shape-rendering:geometricPrecision; text-rendering:geometricPrecision; image-rendering:optimizeQuality; fill-rule:evenodd; clip-rule:evenodd"
viewBox="0 0 3.12 1.23"
 xmlns:xlink="http://www.w3.org/1999/xlink"
 xmlns:xodm="http://www.corel.com/coreldraw/odm/2003">
 <defs>
  <style type="text/css">
   <![CDATA[
    .fil1 {fill:black;fill-rule:nonzero}
    .fil0 {fill:#EE000A;fill-rule:nonzero}
   ]]>
  </style>
 </defs>
 <g id="Capa_x0020_1">
  <metadata id="CorelCorpID_0Corel-Layer"/>
  <path class="fil0" d="M0.05 0.49c-0.03,0 -0.05,0.03 -0.05,0.06l0 0.14c0,0.03 0.02,0.05 0.05,0.05l0.14 0c0.03,0 0.06,0.02 0.06,0.05l0 0.14c0,0.03 0.02,0.06 0.05,0.06l0.14 0c0.03,0 0.05,0.02 0.05,0.05l0 0.14c0,0.03 0.03,0.05 0.06,0.05l0.14 0c0.03,0 0.05,-0.02 0.05,-0.05l0 -0.14c0,-0.03 0.03,-0.05 0.06,-0.05l0.13 0c0.03,0 0.06,-0.03 0.06,-0.06l0 -0.13c0,-0.03 0.03,-0.06 0.06,-0.06l0.13 0c0.03,0 0.05,-0.02 0.05,-0.05l0 -0.14c0,-0.03 -0.02,-0.06 -0.05,-0.06l-0.14 0c-0.03,0 -0.05,-0.02 -0.05,-0.05l0 -0.14c0,-0.03 -0.03,-0.05 -0.06,-0.05l-0.13 0c-0.03,0 -0.06,-0.03 -0.06,-0.07l0 -0.13c0,-0.03 -0.02,-0.05 -0.05,-0.05l-0.14 0c-0.03,0 -0.06,0.02 -0.06,0.05l0 0.14c0,0.03 -0.02,0.06 -0.05,0.06l-0.14 0c-0.03,0 -0.05,0.02 -0.05,0.05l0 0.14c0,0.03 -0.03,0.05 -0.06,0.05l-0.14 0 0 0zm0.75 0.25c-0.03,0 -0.06,-0.03 -0.06,-0.06l0 -0.13c0,-0.03 0.02,-0.06 0.05,-0.06l0.13 0c0.04,0 0.07,0.03 0.07,0.07l0 0.13c0,0.03 -0.03,0.05 -0.06,0.05l-0.13 0zm-0.5 0c-0.03,0 -0.05,-0.02 -0.05,-0.05l0 -0.14c0,-0.03 0.02,-0.06 0.05,-0.06l0.14 0c0.03,0 0.05,-0.02 0.05,-0.05l0 -0.13c0,-0.04 0.03,-0.06 0.07,-0.06l0.13 0c0.03,0 0.05,0.02 0.05,0.05l0 0.14c0,0.03 -0.02,0.05 -0.05,0.05l-0.14 0c-0.03,0 -0.06,0.03 -0.06,0.06l0 0.14c0,0.03 0.03,0.05 0.06,0.05l0.14 0c0.03,0 0.05,0.02 0.05,0.05l0 0.13c0,0.04 -0.03,0.07 -0.06,0.07l-0.13 0c-0.03,0 -0.06,-0.03 -0.06,-0.06l0 -0.14c0,-0.03 -0.02,-0.05 -0.05,-0.05l-0.14 0z"/>
  <g>
   <path class="fil1" d="M1.8 0.59c-0.14,0 -0.2,-0.06 -0.2,-0.21 0,-0.14 0.06,-0.2 0.2,-0.2 0.04,0 0.09,0 0.12,0.02l0 0.04c-0.04,-0.01 -0.09,-0.02 -0.12,-0.02 -0.1,0 -0.14,0.04 -0.14,0.16 0,0.12 0.04,0.17 0.14,0.17 0.04,0 0.08,-0.01 0.13,-0.03l0 0.05c-0.04,0.01 -0.09,0.02 -0.13,0.02l0 0zm0 0l0 0 0 0z"/>
  </g>
  <polygon class="fil1" points="2.27,0.61 2.21,0.63 2.21,0.66 2.31,0.64 2.31,0.31 2.27,0.31 "/>
  <g>
   <path class="fil1" d="M2.07 0.59c0.07,0 0.1,-0.04 0.11,-0.06l0 0.05 0.03 0 0 -0.17c0,-0.07 -0.02,-0.11 -0.13,-0.11 -0.03,0 -0.07,0 -0.09,0.01l-0.01 0 0 0.04 0.01 0c0.01,0 0.05,-0.01 0.09,-0.01 0.08,0 0.09,0.02 0.09,0.07l0 0.01 0 0c-0.02,-0.01 -0.05,-0.01 -0.08,-0.01 -0.09,0 -0.13,0.03 -0.13,0.09 0,0.06 0.03,0.09 0.11,0.09l0 0zm-0.07 -0.09c0,-0.03 0.01,-0.05 0.09,-0.05 0.03,0 0.06,0 0.08,0 0,0.05 -0.02,0.1 -0.1,0.1 -0.06,0 -0.07,-0.02 -0.07,-0.05l0 0z"/>
  </g>
  <path class="fil1" d="M2.58 0.58l0.03 0 0 -0.17c0,-0.07 -0.02,-0.11 -0.13,-0.11 -0.03,0 -0.07,0 -0.1,0.01l0 0 0 0.04 0 0c0.01,0 0.06,-0.01 0.1,-0.01 0.07,0 0.08,0.02 0.08,0.07l0 0.01 0 0c-0.02,-0.01 -0.05,-0.01 -0.08,-0.01 -0.08,0 -0.13,0.03 -0.13,0.09 0,0.06 0.04,0.09 0.12,0.09 0.06,0 0.09,-0.04 0.11,-0.06l0 0.05 0 0zm-0.01 -0.13c-0.01,0.05 -0.02,0.1 -0.1,0.1 -0.06,0 -0.07,-0.02 -0.07,-0.05 0,-0.03 0.01,-0.05 0.09,-0.05 0.03,0 0.06,0 0.08,0l0 0z"/>
  <polygon class="fil1" points="2.26,0.22 2.31,0.22 2.31,0.28 2.27,0.28 "/>
  <g>
   <path class="fil1" d="M2.41 0.87c-0.04,-0.01 -0.05,-0.01 -0.05,-0.02 0,-0.01 0,-0.02 0.05,-0.02 0.04,0 0.08,0.01 0.1,0.01l0 0 0 -0.07 0 0c-0.03,0 -0.07,-0.01 -0.1,-0.01 -0.09,0 -0.13,0.03 -0.13,0.09 0,0.07 0.04,0.08 0.12,0.09 0.04,0.01 0.05,0.02 0.05,0.03 0,0.01 0,0.02 -0.05,0.02 -0.04,0 -0.09,-0.01 -0.11,-0.01l-0.01 -0.01 0 0.07 0.01 0c0.01,0.01 0.06,0.02 0.11,0.02 0.09,0 0.13,-0.03 0.13,-0.1 0,-0.06 -0.04,-0.07 -0.12,-0.09l0 0zm0 0l0 0 0 0z"/>
  </g>
  <g>
   <path class="fil1" d="M2.71 0.99c-0.06,0 -0.07,-0.02 -0.07,-0.08 0,-0.07 0.01,-0.08 0.06,-0.08 0.03,0 0.06,0 0.09,0.01l0 0 0 -0.07 0 0c-0.02,0 -0.05,-0.01 -0.09,-0.01 -0.11,0 -0.15,0.04 -0.15,0.15 0,0.11 0.04,0.15 0.15,0.15 0.04,0 0.08,-0.01 0.1,-0.02l0 0 0 -0.07 -0.01 0.01c-0.01,0 -0.05,0.01 -0.08,0.01l0 0zm0 0l0 0 0 0z"/>
  </g>
  <g>
   <path class="fil1" d="M2.97 0.76c-0.11,0 -0.15,0.04 -0.15,0.15 0,0.1 0.04,0.15 0.15,0.15 0.1,0 0.15,-0.05 0.15,-0.15 0,-0.11 -0.05,-0.15 -0.15,-0.15l0 0zm0.06 0.15c0,0.06 -0.01,0.08 -0.06,0.08 -0.05,0 -0.07,-0.02 -0.07,-0.08 0,-0.06 0.02,-0.08 0.07,-0.08 0.05,0 0.06,0.02 0.06,0.08z"/>
  </g>
  <path class="fil1" d="M1.93 0.96c-0.05,0.02 -0.09,0.03 -0.12,0.03 -0.08,0 -0.12,-0.04 -0.12,-0.14 0,-0.1 0.03,-0.13 0.12,-0.13 0.03,0 0.07,0 0.11,0.01l0.01 0.01 0 -0.08 0 0c-0.04,-0.01 -0.09,-0.02 -0.12,-0.02 -0.14,0 -0.21,0.07 -0.21,0.21 0,0.14 0.06,0.21 0.21,0.21 0.04,0 0.09,-0.01 0.13,-0.02l0 0 0 -0.08 -0.01 0 0 0z"/>
  <path class="fil1" d="M2.16 0.93c0,0.02 -0.01,0.03 -0.02,0.04 -0.01,0.01 -0.02,0.02 -0.05,0.02 0,0 -0.03,0 -0.03,-0.05l0 -0.17 -0.09 0 0 0.18c0,0.06 0.04,0.11 0.11,0.11 0.05,0 0.09,-0.04 0.1,-0.06l0 0.05 0.06 0 0 -0.28 -0.08 0 0 0.16 0 0z"/>
 </g>
</svg>
