<?xml version="1.0" encoding="UTF-8"?>
<!DOCTYPE svg PUBLIC "-//W3C//DTD SVG 1.1//EN" "http://www.w3.org/Graphics/SVG/1.1/DTD/svg11.dtd">
<!-- Creator: CorelDRAW -->
<svg xmlns="http://www.w3.org/2000/svg" xml:space="preserve" width="40px" height="40px" version="1.1" style="shape-rendering:geometricPrecision; text-rendering:geometricPrecision; image-rendering:optimizeQuality; fill-rule:evenodd; clip-rule:evenodd"
viewBox="0 0 3.09 3.09"
 xmlns:xlink="http://www.w3.org/1999/xlink"
 xmlns:xodm="http://www.corel.com/coreldraw/odm/2003">
 <defs>
  <style type="text/css">
   <![CDATA[
    .fil0 {fill:none}
    .fil1 {fill:red;fill-rule:nonzero}
   ]]>
  </style>
 </defs>
 <g id="Capa_x0020_1">
  <metadata id="CorelCorpID_0Corel-Layer"/>
  <g id="_2586785151648">
   <rect class="fil0" width="3.09" height="3.09"/>
   <g>
    <path class="fil1" d="M0.34 0.97c-0.04,-0.03 -0.07,-0.06 -0.1,-0.09 -0.03,-0.03 -0.03,-0.06 0,-0.09 0.21,-0.2 0.42,-0.4 0.63,-0.6 0.03,-0.03 0.06,-0.03 0.09,0 0.06,0.05 0.12,0.11 0.17,0.16 0.02,0.01 0.03,0.01 0.04,0.01 0.09,-0.03 0.18,-0.06 0.27,-0.09 0.06,-0.02 0.12,-0.02 0.18,-0.02 0.1,0.01 0.19,0.06 0.28,0.1 0.09,0.04 0.18,0.09 0.27,0.14 0.03,0.02 0.07,0.02 0.11,0.03 0.02,0 0.02,0 0.03,-0.01 0,-0.04 0.02,-0.06 0.07,-0.06 0.04,0 0.08,0 0.12,0 0.02,0 0.02,0 0.02,-0.02 0,-0.01 0,-0.02 0,-0.03 0.01,-0.03 0.03,-0.05 0.06,-0.05 0.02,0 0.03,0 0.05,0 0.09,0 0.19,0 0.28,0 0.03,0 0.05,0.01 0.06,0.03 0.01,0.01 0.01,0.02 0.01,0.02 0,0.24 0,0.47 0,0.7 0,0.03 -0.03,0.05 -0.06,0.05 -0.17,0 -0.34,0.01 -0.5,0 -0.02,0 -0.03,0.01 -0.04,0.02 -0.06,0.08 -0.14,0.14 -0.23,0.17 -0.05,0.02 -0.1,0.03 -0.14,0.02 -0.02,0 -0.02,0 -0.03,0.01 -0.14,0.13 -0.28,0.26 -0.41,0.4 -0.05,0.04 -0.1,0.09 -0.15,0.14 -0.03,0.03 -0.07,0.03 -0.11,0 -0.32,-0.32 -0.65,-0.63 -0.97,-0.94zm1.52 -0.08c-0.01,0 -0.03,0 -0.04,0 -0.08,-0.02 -0.15,-0.05 -0.23,-0.07 -0.08,-0.02 -0.16,-0.05 -0.24,-0.07 -0.04,-0.01 -0.07,-0.02 -0.11,-0.01 -0.04,0.02 -0.07,0.06 -0.06,0.1 0,0.04 0.02,0.07 0.06,0.09 0.03,0.02 0.06,0.03 0.09,0.04 0.12,0.03 0.23,0.07 0.35,0.11 0.04,0.01 0.08,0.03 0.1,0.06 0,0.01 0,0.01 0,0.01 0.06,0.05 0.13,0.08 0.21,0.09 0.04,0.01 0.09,0.01 0.13,-0.01 0.07,-0.03 0.13,-0.08 0.18,-0.14 0,-0.01 0.01,-0.02 0.01,-0.03 0,-0.13 0,-0.27 0,-0.4 0,-0.02 -0.01,-0.02 -0.03,-0.02 -0.06,-0.01 -0.13,-0.03 -0.19,-0.06 -0.08,-0.05 -0.17,-0.09 -0.26,-0.13 -0.07,-0.04 -0.15,-0.08 -0.24,-0.08 -0.04,-0.01 -0.09,0 -0.13,0.01 -0.05,0.02 -0.11,0.04 -0.17,0.06 -0.01,0.01 -0.03,0.01 -0.04,0.02 0,0 0.01,0.01 0.01,0.01 0.06,0.06 0.12,0.12 0.19,0.18 0,0.01 0.01,0.01 0.02,0.01 0.02,0.01 0.03,0.01 0.05,0.02 0.11,0.03 0.22,0.06 0.33,0.1 0.03,0.01 0.05,0.02 0.05,0.05 0.01,0.03 -0.01,0.05 -0.04,0.06zm-0.88 -0.12c0.03,-0.01 0.06,-0.02 0.09,-0.03 0.01,0 0.01,-0.01 0.02,-0.01 0.03,-0.06 0.07,-0.09 0.13,-0.11 0.01,0 0.02,0 0.02,0 0,-0.01 -0.01,-0.01 -0.01,-0.01 -0.03,-0.03 -0.06,-0.06 -0.09,-0.09 -0.01,-0.01 -0.02,-0.01 -0.03,0 -0.06,0.04 -0.12,0.05 -0.19,0.05 -0.07,0 -0.14,-0.01 -0.2,-0.05 -0.01,-0.01 -0.02,-0.01 -0.03,0 -0.03,0.03 -0.06,0.06 -0.1,0.09 -0.01,0.01 -0.01,0.02 0,0.04 0.03,0.04 0.05,0.09 0.05,0.14 0.01,0.08 0,0.16 -0.05,0.23 -0.01,0.02 -0.01,0.02 0.01,0.03 0.04,0.05 0.09,0.09 0.14,0.14 0.13,0.13 0.27,0.26 0.4,0.39 0.01,0.01 0.02,0.01 0.03,0 0.07,-0.04 0.16,-0.07 0.25,-0.05 0.05,0.01 0.1,0.02 0.15,0.05 0.01,0.01 0.01,0.01 0.02,0 0.03,-0.03 0.06,-0.06 0.1,-0.09 0.02,-0.02 0.02,-0.02 0,-0.04 -0.02,-0.04 -0.04,-0.08 -0.05,-0.12 0,-0.04 -0.01,-0.08 0,-0.12 0,-0.01 0,-0.02 -0.01,-0.02 -0.05,-0.02 -0.1,-0.04 -0.16,-0.05 -0.01,-0.01 -0.01,0 -0.01,0 -0.01,0.01 -0.01,0.01 -0.01,0.02 -0.04,0.11 -0.13,0.17 -0.25,0.2 -0.07,0.01 -0.14,0 -0.21,-0.03 -0.09,-0.05 -0.15,-0.13 -0.17,-0.23 -0.01,-0.04 -0.01,-0.08 0,-0.12 0.02,-0.09 0.08,-0.16 0.16,-0.21zm1.71 0.27c0.06,0 0.11,0 0.17,0 0,-0.02 0,-0.04 0,-0.06 0,-0.16 0,-0.32 0,-0.48 0,-0.01 0,-0.01 0,-0.01 0,-0.02 0,-0.03 -0.02,-0.03 -0.06,0.01 -0.11,0 -0.17,0 -0.03,0 -0.03,0 -0.03,0.03 0,0.17 0,0.34 0,0.5 0,0.05 0,0.05 0.05,0.05zm-1.68 -0.14c-0.08,0.06 -0.09,0.15 -0.06,0.22 0.03,0.08 0.12,0.14 0.22,0.12 0.08,-0.01 0.14,-0.05 0.17,-0.13 0,-0.01 0,-0.02 -0.01,-0.02 -0.04,-0.01 -0.08,-0.02 -0.11,-0.04 -0.08,-0.03 -0.13,-0.08 -0.16,-0.16 0,0 0,-0.01 -0.01,-0.02 -0.01,0 -0.03,0.01 -0.04,0.03zm1.42 -0.32c0,0.09 0,0.19 0,0.28 -0.01,0.06 0,0.11 -0.01,0.16 0,0.02 0.01,0.02 0.02,0.02 0.02,0 0.04,0 0.06,0 0.02,0 0.02,0 0.02,-0.02 0,-0.13 0,-0.25 0,-0.37 0,-0.03 0,-0.05 0,-0.07 0,-0.01 0,-0.01 -0.01,-0.01 -0.03,0 -0.05,0 -0.07,0 -0.01,0 -0.01,0 -0.01,0.01zm-1.96 0.15c-0.03,0.03 -0.06,0.06 -0.09,0.09 -0.01,0.01 -0.01,0.01 0,0.02 0.03,0.04 0.06,0.07 0.1,0.1 0,0 0,0.01 0.01,0.01 0.05,-0.06 0.04,-0.18 0,-0.24 -0.01,0.01 -0.01,0.01 -0.02,0.02zm0.88 1.05c0.01,0.01 0.02,0.01 0.03,0 0.03,-0.03 0.07,-0.06 0.1,-0.1 0,0 0.01,0 0.01,-0.01 -0.06,-0.04 -0.19,-0.04 -0.25,0.01 0.04,0.03 0.07,0.06 0.11,0.1zm-0.52 -1.39c-0.01,0.01 -0.03,0.02 -0.04,0.03 0.07,0.05 0.2,0.04 0.25,0 -0.04,-0.04 -0.08,-0.07 -0.12,-0.11 0,-0.01 -0.01,0 -0.01,0 -0.03,0.03 -0.06,0.05 -0.08,0.08zm0.93 0.9c0,0.03 0.01,0.06 0.03,0.08 0,0.01 0,0.01 0.01,0.01 0.02,-0.02 0.03,-0.03 0.05,-0.05 -0.03,-0.01 -0.06,-0.03 -0.09,-0.04z"/>
    <path class="fil1" d="M2.65 2.35c0,0.09 -0.05,0.16 -0.12,0.21 -0.03,0.02 -0.07,0.03 -0.1,0.05 -0.09,0.03 -0.18,0.06 -0.28,0.09 -0.15,0.06 -0.31,0.11 -0.46,0.17 -0.04,0.01 -0.08,0.03 -0.12,0.04 -0.02,0.01 -0.05,0.01 -0.08,0.01 -0.04,0 -0.09,0 -0.14,-0.01 -0.04,-0.01 -0.08,-0.03 -0.12,-0.04 -0.11,-0.05 -0.22,-0.11 -0.32,-0.17 -0.04,-0.02 -0.09,-0.04 -0.14,-0.05 -0.01,0 -0.01,0.01 -0.01,0.02 -0.01,0.03 -0.04,0.05 -0.07,0.05 -0.04,0 -0.08,0 -0.12,0 -0.02,0 -0.02,0.01 -0.02,0.02 0,0.06 -0.02,0.09 -0.09,0.08 -0.09,0 -0.19,0 -0.28,0 -0.04,0 -0.06,-0.01 -0.07,-0.03 0,-0.01 0,-0.02 0,-0.03 0,-0.22 0,-0.45 0,-0.67 0,-0.04 0.02,-0.07 0.06,-0.07 0.16,0 0.32,0 0.48,0 0.02,0 0.02,0 0.03,-0.01 0.06,-0.08 0.13,-0.14 0.22,-0.17 0.07,-0.02 0.13,-0.02 0.19,-0.01 0.09,0.01 0.17,0.05 0.23,0.1 0.01,0.01 0.02,0.01 0.02,0.02 0.02,0.03 0.04,0.04 0.07,0.04 0.1,0.04 0.2,0.07 0.31,0.11 0.04,0.01 0.08,0.02 0.12,0.05 0.04,0.03 0.07,0.06 0.09,0.11 0.01,0.01 0.01,0.01 0.02,0.01 0.07,-0.02 0.15,-0.04 0.22,-0.06 0.07,-0.02 0.13,-0.04 0.2,-0.05 0.12,-0.03 0.22,0.02 0.27,0.14 0,0.02 0,0.03 0.01,0.05zm-0.12 0.02c0.01,-0.01 0,-0.02 0,-0.03 -0.01,-0.04 -0.04,-0.06 -0.07,-0.07 -0.03,-0.01 -0.05,-0.01 -0.08,0 -0.07,0.02 -0.14,0.04 -0.21,0.06 -0.07,0.02 -0.14,0.04 -0.21,0.05 -0.01,0.01 -0.02,0.01 -0.02,0.03 -0.01,0.04 -0.03,0.07 -0.07,0.1 -0.05,0.04 -0.11,0.06 -0.17,0.05 -0.05,-0.01 -0.09,-0.03 -0.13,-0.04 -0.08,-0.02 -0.15,-0.05 -0.22,-0.07 -0.06,-0.02 -0.11,-0.04 -0.17,-0.05 -0.04,-0.02 -0.05,-0.07 -0.02,-0.1 0.02,-0.02 0.04,-0.02 0.07,-0.01 0.06,0.02 0.12,0.04 0.18,0.06 0.09,0.03 0.18,0.06 0.27,0.08 0.03,0.01 0.05,0.02 0.07,0.01 0.07,-0.01 0.11,-0.08 0.08,-0.14 -0.02,-0.04 -0.05,-0.06 -0.09,-0.07 -0.06,-0.02 -0.11,-0.04 -0.17,-0.06 -0.07,-0.02 -0.15,-0.05 -0.22,-0.07 -0.02,-0.01 -0.05,-0.01 -0.07,-0.04 -0.05,-0.06 -0.11,-0.1 -0.19,-0.12 -0.06,-0.01 -0.11,-0.01 -0.17,0.01 -0.06,0.03 -0.12,0.08 -0.16,0.14 0,0.01 0,0.02 0,0.03 0,0.12 0,0.24 0,0.36 0,0.01 0,0.03 0,0.05 0,0 0,0.01 0.01,0.01 0.01,0 0.02,0 0.03,0.01 0.05,0 0.09,0.01 0.13,0.03 0.08,0.04 0.16,0.1 0.25,0.14 0.07,0.03 0.13,0.07 0.21,0.08 0.06,0.01 0.12,0.01 0.18,-0.01 0.07,-0.02 0.14,-0.05 0.21,-0.08 0.1,-0.03 0.21,-0.07 0.31,-0.1 0.11,-0.04 0.22,-0.08 0.33,-0.12 0.05,-0.02 0.1,-0.05 0.11,-0.12zm-2.31 0.32c0,0.02 0.01,0.02 0.02,0.02 0.06,0 0.11,0 0.17,0 0.02,0 0.02,0 0.02,-0.03 0,-0.17 0,-0.35 0.01,-0.52 0,-0.02 -0.01,-0.02 -0.03,-0.02 -0.05,0 -0.11,0 -0.16,0 -0.03,0 -0.03,0 -0.03,0.02 0,0.18 0,0.35 0,0.53zm0.33 -0.46c0,0.12 0,0.24 0,0.36 0,0.02 0,0.02 0.02,0.02 0.02,0 0.03,0 0.05,0 0.02,0 0.02,0 0.02,-0.02 0,-0.15 0,-0.29 0,-0.43 0,0 0,-0.01 0,-0.01 0,-0.01 0,-0.01 -0.01,-0.01 -0.02,0 -0.04,0 -0.06,0 -0.02,0 -0.02,0 -0.02,0.02 0,0.02 0,0.04 0,0.07z"/>
   </g>
  </g>
 </g>
</svg>
