<svg width="24" height="25" viewBox="0 0 24 25" fill="none" xmlns="http://www.w3.org/2000/svg">
<path fill-rule="evenodd" clip-rule="evenodd" d="M4 11.2266C4 7.36057 7.13401 4.22656 11 4.22656C14.866 4.22656 18 7.36057 18 11.2266C18 13.1125 17.2542 14.8242 16.0414 16.0829C16.0072 16.1092 15.9743 16.1381 15.9429 16.1694C15.9115 16.2008 15.8827 16.2337 15.8563 16.268C14.5977 17.4808 12.8859 18.2266 11 18.2266C7.13401 18.2266 4 15.0926 4 11.2266ZM16.6177 18.2585C15.078 19.4901 13.125 20.2266 11 20.2266C6.02944 20.2266 2 16.1971 2 11.2266C2 6.256 6.02944 2.22656 11 2.22656C15.9706 2.22656 20 6.256 20 11.2266C20 13.3516 19.2635 15.3046 18.0319 16.8442L21.7071 20.5194C22.0976 20.91 22.0976 21.5431 21.7071 21.9337C21.3166 22.3242 20.6834 22.3242 20.2929 21.9337L16.6177 18.2585Z" fill="#6C777A"/>
</svg>
