<svg width="24" height="24" viewBox="0 0 24 24" fill="none" xmlns="http://www.w3.org/2000/svg">
<path d="M4 15.2C4 12.9373 4 11.8059 4.70294 11.103C5.40589 10.4 6.53726 10.4 8.8 10.4H15.2C17.4627 10.4 18.5941 10.4 19.2971 11.103C20 11.8059 20 12.9373 20 15.2C20 17.4628 20 18.5941 19.2971 19.2971C18.5941 20 17.4627 20 15.2 20H8.8C6.53726 20 5.40589 20 4.70294 19.2971C4 18.5941 4 17.4628 4 15.2Z" stroke="white" stroke-width="1.5"/>
<path d="M12 13.6V16.8" stroke="white" stroke-width="1.5" stroke-linecap="round"/>
<path d="M7.2002 10.4V8.8C7.2002 6.14903 9.34923 4 12.0002 4C14.6512 4 16.8002 6.14903 16.8002 8.8V10.4" stroke="white" stroke-width="1.5" stroke-linecap="round"/>
</svg>
