<?xml version="1.0" encoding="UTF-8"?>
<!DOCTYPE svg PUBLIC "-//W3C//DTD SVG 1.1//EN" "http://www.w3.org/Graphics/SVG/1.1/DTD/svg11.dtd">
<!-- Creator: CorelDRAW -->
<svg xmlns="http://www.w3.org/2000/svg" xml:space="preserve" width="40px" height="40px" version="1.1" style="shape-rendering:geometricPrecision; text-rendering:geometricPrecision; image-rendering:optimizeQuality; fill-rule:evenodd; clip-rule:evenodd"
viewBox="0 0 1.9 1.9"
 xmlns:xlink="http://www.w3.org/1999/xlink"
 xmlns:xodm="http://www.corel.com/coreldraw/odm/2003">
 <defs>
  <style type="text/css">
   <![CDATA[
    .fil0 {fill:none}
    .fil1 {fill:red;fill-rule:nonzero}
   ]]>
  </style>
 </defs>
 <g id="Capa_x0020_1">
  <metadata id="CorelCorpID_0Corel-Layer"/>
  <g id="_2586719381152">
   <rect class="fil0" width="1.9" height="1.9"/>
   <g>
    <path class="fil1" d="M1.01 1.77l0 0c-0.01,0 -0.01,0 -0.02,0 -0.01,0.01 -0.02,0.01 -0.03,0.01 -0.01,0 -0.03,0 -0.04,0 -0.01,-0.01 -0.02,-0.01 -0.03,-0.01 0,0 0,0 0,0 -0.06,-0.01 -0.11,-0.03 -0.16,-0.05 -0.08,-0.03 -0.16,-0.07 -0.23,-0.12 -0.07,-0.05 -0.13,-0.11 -0.18,-0.18 -0.07,-0.09 -0.11,-0.19 -0.13,-0.29 -0.01,-0.06 -0.02,-0.12 -0.02,-0.18 0,-0.1 0,-0.2 0,-0.3 0,-0.04 0,-0.08 0,-0.11 0,-0.01 0,-0.01 0,-0.01 0,0 0,0 0,0 0,-0.03 0,-0.09 0,-0.13 0,-0.01 0,-0.02 0,-0.02 0,-0.01 0,-0.02 0,-0.02 0,0 0,-0.01 0,-0.01 0.01,0 0.01,0 0.01,0 0.01,0 0.01,0 0.02,0l0 0c0.06,-0.01 0.12,-0.03 0.18,-0.04 0.05,-0.01 0.11,-0.03 0.16,-0.04 0.08,-0.02 0.15,-0.05 0.22,-0.07 0.06,-0.03 0.12,-0.05 0.18,-0.08 0,0 0.01,0 0.01,0 0,0 0,0 0.01,0 0.1,0.05 0.21,0.09 0.32,0.13 0.04,0.01 0.09,0.02 0.13,0.04 0.05,0.01 0.09,0.02 0.13,0.03 0.03,0 0.06,0.01 0.08,0.01 0.01,0 0.02,0 0.02,0.01 0.02,0 0.05,0 0.07,0.01 0,0 0.01,0 0.01,0 0,0 0,0 0,0 0,0 0,0 0.01,0 0,0.01 0,0.01 0,0.01 0,0.06 0,0.12 0,0.18 0,0.14 0,0.27 0,0.41 0,0.07 -0.01,0.13 -0.03,0.2 -0.01,0.05 -0.03,0.11 -0.05,0.16 -0.06,0.11 -0.14,0.2 -0.24,0.28 -0.09,0.06 -0.18,0.11 -0.28,0.14 -0.04,0.02 -0.08,0.03 -0.12,0.04zm-0.91 -1.24c0,0.03 0,0.05 0,0.07 0,0.12 0,0.24 0,0.36 0,0.06 0.01,0.11 0.02,0.16 0,0.04 0.01,0.09 0.03,0.13 0.04,0.11 0.1,0.21 0.19,0.3 0.07,0.07 0.16,0.13 0.25,0.18 0.1,0.05 0.2,0.09 0.31,0.12 0,0 0.01,0 0.01,0 0.02,0 0.04,0.01 0.06,0 0.06,-0.01 0.11,-0.03 0.17,-0.04 0.09,-0.04 0.17,-0.08 0.25,-0.13 0.1,-0.06 0.18,-0.13 0.25,-0.23 0.04,-0.06 0.08,-0.12 0.1,-0.18 0.02,-0.06 0.04,-0.12 0.05,-0.18 0,-0.04 0.01,-0.08 0.01,-0.12 0,-0.13 0,-0.26 0,-0.4 0,-0.04 0,-0.09 0,-0.14 0,-0.01 0,-0.02 0,-0.03 0,-0.03 0,-0.06 0,-0.08 0,-0.02 -0.02,-0.03 -0.03,-0.04 0,0 0,0 -0.01,0 -0.01,0 -0.03,0 -0.04,0 -0.05,-0.01 -0.1,-0.02 -0.15,-0.03 -0.06,-0.01 -0.12,-0.03 -0.18,-0.05 -0.07,-0.01 -0.13,-0.03 -0.19,-0.06 -0.08,-0.02 -0.16,-0.06 -0.23,-0.09 -0.01,-0.01 -0.03,-0.01 -0.04,0 -0.07,0.03 -0.14,0.06 -0.21,0.08 -0.07,0.03 -0.14,0.05 -0.21,0.07 -0.04,0.02 -0.09,0.03 -0.14,0.04 -0.03,0.01 -0.06,0.01 -0.09,0.02 0,0 -0.01,0 -0.02,0 -0.02,0.01 -0.04,0.01 -0.06,0.01 0,0 -0.01,0 -0.01,0 -0.02,0.01 -0.04,0.01 -0.06,0.01 -0.01,0.01 -0.02,0.01 -0.02,0.02 -0.01,0 -0.01,0.01 -0.01,0.02 0,0.03 0,0.17 0,0.21z"/>
    <path class="fil1" d="M1.28 1.29c0,0 0,0 0,0 -0.09,0.08 -0.19,0.13 -0.31,0.13 -0.06,0.01 -0.12,0 -0.18,-0.02 -0.12,-0.05 -0.21,-0.13 -0.27,-0.25 -0.03,-0.06 -0.05,-0.13 -0.05,-0.2 0,-0.03 0.01,-0.07 0.01,-0.1 0.01,-0.05 0.03,-0.1 0.06,-0.15 0.06,-0.08 0.13,-0.14 0.21,-0.18 0.05,-0.03 0.1,-0.04 0.16,-0.04 0.06,-0.01 0.13,0 0.19,0.02 0.1,0.03 0.18,0.09 0.24,0.17 0.05,0.08 0.08,0.17 0.08,0.27 0.01,0.02 0,0.04 0,0.06 0,0.03 -0.01,0.06 -0.02,0.1 -0.01,0.02 -0.02,0.04 -0.03,0.07 0,0 0,0 0,0 -0.03,0.05 -0.05,0.08 -0.07,0.09 0,0.01 0,0.01 -0.01,0.01 0,0.01 0,0.01 -0.01,0.02zm-0.01 0.1c0.02,-0.01 0.04,-0.03 0.06,-0.05 0,0 0,0 0,0 0,-0.01 0.01,-0.01 0.01,-0.02 0.02,-0.01 0.03,-0.03 0.04,-0.05 0.01,-0.01 0.03,-0.03 0.04,-0.04 0,-0.01 0.01,-0.02 0.01,-0.02 0,0 0,-0.01 0,-0.01 0.04,-0.06 0.05,-0.13 0.06,-0.19 0.01,-0.05 0.01,-0.09 0,-0.14 0,-0.04 -0.01,-0.07 -0.03,-0.11 -0.04,-0.12 -0.12,-0.21 -0.23,-0.28 -0.05,-0.03 -0.1,-0.05 -0.16,-0.06 -0.03,-0.01 -0.06,-0.01 -0.09,-0.02 -0.06,0 -0.12,0.01 -0.18,0.03 -0.08,0.02 -0.16,0.06 -0.22,0.11 -0.11,0.1 -0.17,0.23 -0.18,0.38 0,0.06 0.01,0.12 0.02,0.18 0.03,0.09 0.08,0.17 0.14,0.23 0.1,0.1 0.22,0.15 0.36,0.16 0.06,0.01 0.12,0 0.18,-0.02 0.06,-0.01 0.12,-0.04 0.17,-0.08z"/>
    <path class="fil1" d="M1.15 0.83c0.02,0 0.04,0 0.07,0 0.02,0 0.03,0.01 0.03,0.03 0,0.06 0,0.12 0,0.18 0,0.02 -0.01,0.03 -0.03,0.03 -0.05,0 -0.09,0 -0.14,0 -0.01,0 -0.01,0 -0.01,0.01 0,0.05 0,0.09 0,0.14 0,0.02 -0.01,0.03 -0.03,0.03 -0.06,0 -0.12,0 -0.18,0 -0.02,0 -0.03,-0.01 -0.03,-0.03 0,-0.05 0,-0.09 0,-0.14 0,-0.01 -0.01,-0.01 -0.02,-0.01 -0.04,0 -0.08,0 -0.13,0 -0.02,0 -0.03,-0.01 -0.03,-0.04 0,-0.05 0,-0.11 0,-0.17 0,-0.02 0.01,-0.03 0.03,-0.03 0.05,0 0.09,0 0.13,0 0.02,0 0.02,0 0.02,-0.02 0,-0.04 0,-0.08 0,-0.13 0,-0.02 0.01,-0.03 0.03,-0.03 0.06,0 0.12,0 0.18,0 0.02,0 0.03,0.01 0.03,0.03 0,0.05 0,0.09 0,0.14 0,0 0,0.01 0.01,0.01 0.02,0 0.05,0 0.07,0zm-0.08 0.06c-0.01,0 -0.02,0 -0.03,0 -0.02,0 -0.03,-0.01 -0.03,-0.03 0,-0.05 0,-0.09 0,-0.13 0,-0.02 0,-0.02 -0.02,-0.02 -0.03,0 -0.06,0 -0.09,0 -0.01,0 -0.01,0 -0.01,0.01 0,0.05 0,0.09 0,0.13 0,0.03 -0.02,0.04 -0.04,0.04 -0.04,0 -0.08,0 -0.13,0 -0.01,0 -0.01,0 -0.01,0.01 0,0.03 0,0.06 0,0.09 0,0.01 0,0.02 0.01,0.02 0.05,0 0.09,0 0.13,0 0.03,0 0.04,0.01 0.04,0.03 0,0.05 0,0.09 0,0.14 0,0 0,0.01 0.01,0.01 0.03,0 0.06,0 0.09,0 0.01,0 0.02,-0.01 0.02,-0.02 0,-0.04 0,-0.08 0,-0.13 0,-0.02 0.01,-0.03 0.03,-0.03 0.05,0 0.09,0 0.13,0 0.02,0 0.02,-0.01 0.02,-0.02 0,-0.03 0,-0.06 0,-0.09 0,-0.01 0,-0.01 -0.01,-0.01 -0.04,0 -0.07,0 -0.11,0z"/>
   </g>
  </g>
 </g>
</svg>
