<?xml version="1.0" encoding="UTF-8"?>
<!DOCTYPE svg PUBLIC "-//W3C//DTD SVG 1.1//EN" "http://www.w3.org/Graphics/SVG/1.1/DTD/svg11.dtd">
<!-- Creator: CorelDRAW -->
<svg xmlns="http://www.w3.org/2000/svg" xml:space="preserve" width="40px" height="40px" version="1.1" style="shape-rendering:geometricPrecision; text-rendering:geometricPrecision; image-rendering:optimizeQuality; fill-rule:evenodd; clip-rule:evenodd"
viewBox="0 0 2.86 2.86"
 xmlns:xlink="http://www.w3.org/1999/xlink"
 xmlns:xodm="http://www.corel.com/coreldraw/odm/2003">
 <defs>
  <style type="text/css">
   <![CDATA[
    .fil0 {fill:none}
    .fil1 {fill:red;fill-rule:nonzero}
   ]]>
  </style>
 </defs>
 <g id="Capa_x0020_1">
  <metadata id="CorelCorpID_0Corel-Layer"/>
  <g id="_1740159932896">
   <rect class="fil0" width="2.86" height="2.86"/>
   <g>
    <path class="fil1" d="M2.47 2.21c0.05,0.05 0.1,0.11 0.16,0.16 0.02,0.03 0.05,0.06 0.05,0.1 0.01,0.07 0,0.13 -0.06,0.18 -0.04,0.04 -0.09,0.06 -0.15,0.05 -0.05,0 -0.09,-0.03 -0.12,-0.06 -0.14,-0.14 -0.28,-0.29 -0.43,-0.43 -0.02,-0.03 -0.03,-0.06 -0.03,-0.1 0,-0.02 -0.01,-0.03 -0.02,-0.05 -0.09,-0.09 -0.17,-0.19 -0.26,-0.29 -0.01,-0.02 -0.01,-0.02 -0.03,0 -0.06,0.04 -0.13,0.08 -0.2,0.11 -0.06,0.02 -0.12,0.04 -0.18,0.05 -0.08,0.01 -0.16,0.02 -0.23,0.01 -0.09,-0.01 -0.17,-0.03 -0.25,-0.06 -0.1,-0.04 -0.2,-0.11 -0.28,-0.19 -0.09,-0.09 -0.16,-0.19 -0.2,-0.3 -0.02,-0.05 -0.04,-0.1 -0.05,-0.16 -0.01,-0.07 -0.02,-0.15 -0.02,-0.23 0.01,-0.06 0.02,-0.12 0.03,-0.18 0.02,-0.07 0.04,-0.13 0.08,-0.2 0.03,-0.06 0.07,-0.12 0.12,-0.18 0.07,-0.08 0.16,-0.14 0.25,-0.19 0.07,-0.03 0.13,-0.06 0.2,-0.07 0.09,-0.03 0.17,-0.03 0.26,-0.03 0.06,0.01 0.12,0.02 0.18,0.03 0.11,0.04 0.21,0.09 0.31,0.16 0.05,0.05 0.11,0.1 0.15,0.16 0.05,0.06 0.09,0.13 0.12,0.2 0.02,0.05 0.04,0.11 0.05,0.17 0.01,0.05 0.01,0.11 0.02,0.17 0,0.05 -0.01,0.1 -0.02,0.16 -0.01,0.07 -0.03,0.14 -0.06,0.2 -0.02,0.05 -0.04,0.1 -0.07,0.15 -0.01,0 -0.01,0.01 0,0.02 0.09,0.1 0.18,0.2 0.27,0.31 0.01,0.01 0.03,0.02 0.05,0.02 0.04,0 0.07,0.02 0.09,0.04 0.09,0.09 0.18,0.18 0.27,0.27zm-1.59 -1.94c-0.01,0.01 -0.02,0.01 -0.03,0.01 -0.12,0.04 -0.23,0.09 -0.32,0.18 -0.13,0.11 -0.21,0.26 -0.25,0.43 -0.01,0.06 -0.01,0.13 -0.01,0.2 0,0.05 0.01,0.1 0.02,0.15 0.02,0.08 0.05,0.16 0.09,0.23 0.06,0.1 0.15,0.19 0.25,0.26 0.07,0.04 0.14,0.07 0.21,0.1 0.06,0.01 0.11,0.02 0.17,0.02 0.09,0.01 0.17,0 0.26,-0.02 0.08,-0.03 0.16,-0.07 0.24,-0.12 0.09,-0.06 0.16,-0.14 0.22,-0.23 0.03,-0.06 0.06,-0.12 0.08,-0.19 0.02,-0.06 0.03,-0.11 0.03,-0.17 0.01,-0.07 0.01,-0.14 -0.01,-0.2 0,-0.05 -0.01,-0.09 -0.03,-0.13 -0.04,-0.12 -0.1,-0.22 -0.19,-0.31 -0.08,-0.07 -0.17,-0.13 -0.27,-0.17 -0.07,-0.03 -0.13,-0.05 -0.21,-0.05 -0.08,-0.01 -0.16,-0.01 -0.25,0.01zm1.69 2.17c-0.13,-0.13 -0.25,-0.25 -0.37,-0.38 -0.02,-0.02 -0.04,-0.04 -0.06,-0.06 -0.02,-0.02 -0.06,-0.02 -0.07,-0.01 -0.03,0.03 -0.06,0.06 -0.09,0.09 0,0 0,0.01 0,0.01 -0.01,0.03 0,0.05 0.02,0.07 0.06,0.06 0.12,0.12 0.17,0.18 0.09,0.08 0.17,0.16 0.25,0.24 0.05,0.06 0.12,0.04 0.16,0 0.03,-0.04 0.03,-0.1 -0.01,-0.14zm-0.68 -0.61c-0.05,-0.07 -0.11,-0.13 -0.17,-0.2 -0.01,0.02 -0.03,0.04 -0.04,0.05 -0.01,0.01 -0.01,0.02 0,0.03 0.05,0.06 0.1,0.12 0.15,0.18 0.03,0.03 0.06,0.07 0.09,0.1 0.01,0.01 0.01,0.01 0.02,0.01 0.02,-0.02 0.04,-0.04 0.05,-0.06 -0.03,-0.04 -0.06,-0.07 -0.1,-0.11z"/>
    <path class="fil1" d="M0.39 1.91c0,-0.02 0,-0.03 0,-0.04 0,-0.01 0,-0.02 0.01,-0.02 0.02,0 0.04,0 0.06,0 0.01,0 0.02,0.01 0.02,0.02 0,0.05 0,0.1 0,0.15 0,0.09 0,0.18 0,0.27 0,0.05 0.03,0.1 0.08,0.11 0.02,0 0.03,0.01 0.05,0.01 0.47,0 0.94,0 1.4,0 0.01,0 0.03,0 0.04,0 0.01,0 0.01,0 0.01,0.01 0,0.02 0,0.04 0,0.06 0,0.01 0,0.02 -0.01,0.02 -0.01,0 -0.01,0 -0.01,0 -0.48,0 -0.96,0 -1.43,0 -0.1,0 -0.16,-0.05 -0.2,-0.13 -0.01,-0.02 -0.02,-0.05 -0.02,-0.07 0,-0.13 0,-0.26 0,-0.39z"/>
    <path class="fil1" d="M1.94 0.46c-0.04,0 -0.08,0 -0.11,0 -0.03,0 -0.03,0 -0.02,-0.02 0,-0.01 0,-0.03 0,-0.04 -0.01,-0.02 0,-0.03 0.02,-0.03 0.12,0 0.24,0 0.36,0 0.03,0.01 0.07,0 0.11,0.01 0.07,0.01 0.13,0.05 0.16,0.13 0.01,0.03 0.02,0.06 0.02,0.09 0,0.45 0,0.91 0,1.37 0,0.02 0,0.02 -0.03,0.02 -0.01,0 -0.03,0 -0.05,0 -0.01,0 -0.01,-0.01 -0.01,-0.02 0,0 0,0 0,-0.01 0,-0.13 0,-0.27 0,-0.41 0,-0.11 0,-0.22 0,-0.33 0,-0.1 0,-0.2 0,-0.31 0,-0.1 0,-0.21 0,-0.31 0,-0.05 -0.02,-0.09 -0.06,-0.12 -0.03,-0.01 -0.05,-0.02 -0.08,-0.02 -0.1,0 -0.21,0 -0.31,0z"/>
    <path class="fil1" d="M1.5 2.19c0.08,0 0.16,0 0.23,0 0.04,0 0.07,0 0.1,0 0.02,0 0.02,0.01 0.02,0.02 0,0.02 0,0.04 0,0.06 0,0.01 0,0.01 -0.02,0.01 -0.42,0 -0.84,0 -1.26,0 -0.01,0 -0.02,0 -0.02,-0.01 0,-0.02 0,-0.04 0,-0.06 0,-0.01 0.01,-0.02 0.02,-0.02 0.03,0 0.05,0 0.08,0 0.28,0 0.57,0 0.85,0z"/>
    <path class="fil1" d="M1.38 2.02c0.09,0 0.19,0 0.28,0 0.02,0 0.02,0.01 0.02,0.03 0,0.01 0,0.03 0,0.05 0,0.01 0,0.02 -0.01,0.02 -0.05,-0.01 -0.09,-0.01 -0.13,-0.01 -0.32,0 -0.64,0.01 -0.96,0.01 -0.02,0 -0.03,-0.01 -0.03,-0.03 0,-0.01 0,-0.03 0,-0.05 0,-0.01 0.01,-0.02 0.02,-0.02 0.01,0 0.02,0 0.03,0 0.26,0 0.52,0 0.78,0z"/>
    <path class="fil1" d="M2.31 0.64c0,0.04 0.01,0.04 -0.03,0.03 -0.07,0 -0.14,0 -0.2,0 -0.04,0 -0.09,0 -0.13,0 -0.02,0 -0.02,0 -0.02,-0.02 0,-0.01 0,-0.03 0,-0.05 0,-0.01 0,-0.02 0.02,-0.02 0.03,0 0.06,0 0.08,0 0.09,0 0.17,0 0.25,0 0.03,0 0.03,0 0.03,0.03 0,0.01 0,0.02 0,0.03z"/>
    <path class="fil1" d="M2.17 0.89c-0.05,0 -0.09,0 -0.14,0 -0.01,0 -0.02,-0.01 -0.02,-0.02 0,-0.02 0,-0.04 0,-0.05 0,-0.02 0.01,-0.02 0.02,-0.02 0.07,0 0.13,0 0.2,0 0.02,0 0.04,0 0.06,0 0.01,0 0.02,0 0.02,0.01 0,0.02 0,0.04 0,0.06 0,0.01 -0.01,0.02 -0.02,0.02 -0.04,0 -0.08,0 -0.12,0z"/>
    <path class="fil1" d="M2.03 1.52c-0.02,0 -0.02,0 -0.02,-0.02 0,-0.02 0,-0.03 0,-0.05 0,-0.01 0.01,-0.02 0.02,-0.02 0.09,0 0.17,0 0.26,0 0.02,0 0.02,0.01 0.02,0.02 0,0.02 0,0.04 0,0.05 0,0.02 -0.01,0.02 -0.02,0.02 -0.07,0 -0.14,0 -0.22,0 -0.01,0 -0.02,0 -0.04,0z"/>
    <path class="fil1" d="M2.23 1.1c-0.06,0 -0.13,0 -0.2,0 -0.02,0 -0.02,0 -0.02,-0.02 0,-0.02 0,-0.04 0,-0.06 0,-0.01 0.01,-0.01 0.02,-0.01 0.09,0 0.18,0 0.27,0 0.01,0 0.01,0 0.01,0.01 0,0.02 0,0.04 0,0.06 0,0.02 -0.01,0.02 -0.02,0.02 -0.02,0 -0.04,0 -0.06,0z"/>
    <path class="fil1" d="M2.23 1.31c-0.07,0 -0.13,0 -0.2,0 -0.02,0 -0.02,0 -0.02,-0.02 0,-0.02 0,-0.03 0,-0.05 0,-0.02 0,-0.02 0.02,-0.02 0.08,0 0.16,0 0.25,0 0.03,0 0.03,0 0.03,0.04 0,0.01 0,0.02 0,0.04 0,0.01 0,0.01 -0.01,0.01 -0.02,0 -0.05,0 -0.07,0z"/>
    <path class="fil1" d="M2.06 1.65c0,-0.01 0,-0.01 0.01,-0.01 0.08,0 0.15,0 0.22,0 0.02,0 0.02,0.01 0.02,0.02 0,0.02 0,0.04 0,0.06 0,0.01 0,0.01 -0.01,0.01 -0.08,0 -0.16,0 -0.23,0 -0.01,0 -0.02,0 -0.02,-0.01 0,-0.02 0,-0.04 0.01,-0.07z"/>
    <path class="fil1" d="M1.2 0.35c0.04,0.01 0.08,0.02 0.12,0.03 0.07,0.03 0.14,0.07 0.2,0.13 0.09,0.07 0.16,0.17 0.2,0.28 0.02,0.06 0.03,0.11 0.04,0.17 0.01,0.06 0.01,0.11 0,0.16 0,0.07 -0.02,0.13 -0.04,0.19 -0.03,0.1 -0.09,0.18 -0.16,0.25 -0.08,0.08 -0.17,0.14 -0.28,0.18 -0.04,0.01 -0.08,0.02 -0.13,0.03 -0.05,0.01 -0.11,0.01 -0.16,0 -0.07,0 -0.13,-0.02 -0.19,-0.04 -0.14,-0.06 -0.25,-0.15 -0.33,-0.27 -0.04,-0.06 -0.07,-0.13 -0.09,-0.2 -0.02,-0.05 -0.03,-0.1 -0.03,-0.16 -0.01,-0.07 0,-0.13 0.01,-0.19 0.02,-0.12 0.08,-0.23 0.15,-0.32 0.06,-0.07 0.13,-0.13 0.2,-0.17 0.06,-0.03 0.11,-0.05 0.17,-0.07 0.06,-0.01 0.11,-0.02 0.17,-0.02 0.04,0 0.07,0 0.1,0.01 0.02,0 0.03,0 0.05,0.01zm0.23 0.2c-0.01,-0.01 -0.03,-0.03 -0.05,-0.04 -0.08,-0.05 -0.17,-0.08 -0.26,-0.09 -0.09,0 -0.19,0.01 -0.28,0.04 -0.09,0.03 -0.16,0.08 -0.23,0.15 -0.09,0.09 -0.14,0.2 -0.17,0.33 0,0.04 -0.01,0.09 -0.01,0.13 0.01,0.04 0.01,0.09 0.02,0.13 0.01,0.04 0.02,0.07 0.04,0.11 0.03,0.08 0.09,0.16 0.16,0.22 0.1,0.09 0.22,0.14 0.35,0.15 0.07,0.01 0.14,0 0.21,-0.01 0.05,-0.02 0.1,-0.04 0.15,-0.06 0.08,-0.05 0.16,-0.12 0.21,-0.2 0.06,-0.08 0.09,-0.17 0.1,-0.27 0.01,-0.06 0.01,-0.13 0,-0.19 -0.01,-0.05 -0.02,-0.09 -0.04,-0.14 -0.04,-0.1 -0.1,-0.19 -0.2,-0.26z"/>
    <path class="fil1" d="M0.56 1.03c0.02,-0.03 0.05,-0.05 0.08,-0.08 0.06,-0.05 0.12,-0.08 0.2,-0.11 0.03,-0.01 0.07,-0.02 0.1,-0.03 0.04,0 0.09,-0.01 0.13,-0.01 0.06,0.01 0.13,0.02 0.19,0.04 0.07,0.02 0.13,0.05 0.18,0.09 0.05,0.03 0.09,0.07 0.13,0.12 0,0 0,0.01 0,0.01 -0.02,0.03 -0.03,0.05 -0.05,0.06 -0.09,0.08 -0.18,0.13 -0.28,0.16 -0.08,0.02 -0.16,0.03 -0.23,0.02 -0.1,-0.01 -0.19,-0.03 -0.27,-0.08 -0.08,-0.04 -0.14,-0.1 -0.19,-0.16 0,0 0,-0.01 0,-0.02 0,0 0.01,-0.01 0.01,-0.01zm0.37 -0.12c-0.1,0.02 -0.19,0.07 -0.27,0.14 0.05,0.07 0.25,0.17 0.31,0.15 -0.05,-0.03 -0.09,-0.08 -0.09,-0.15 0.01,-0.06 0.04,-0.11 0.09,-0.15 -0.01,0 -0.02,0 -0.04,0.01zm0.37 0.25c0.06,-0.03 0.11,-0.06 0.16,-0.11 -0.09,-0.08 -0.2,-0.13 -0.32,-0.15 0.05,0.04 0.09,0.08 0.09,0.15 0,0.07 -0.04,0.12 -0.09,0.16 0.03,0 0.09,-0.02 0.16,-0.05zm-0.3 -0.04c0.02,0.01 0.04,0.02 0.07,0.01 0.05,0 0.07,-0.04 0.06,-0.09 0,-0.04 -0.05,-0.08 -0.09,-0.07 -0.07,0.02 -0.08,0.1 -0.04,0.15z"/>
    <path class="fil1" d="M0.89 1.48c-0.04,0 -0.07,0 -0.11,0 -0.02,0 -0.02,0 -0.02,-0.02 0,-0.02 0,-0.04 0,-0.05 0,-0.02 0.01,-0.02 0.02,-0.02 0.01,0 0.01,0 0.02,0 0.17,0 0.35,0 0.53,0 0.02,0 0.02,0 0.02,0.02 0,0.02 0,0.04 0,0.05 0,0.02 0,0.02 -0.01,0.02 -0.03,0 -0.05,0 -0.08,0 -0.12,0 -0.24,0 -0.37,0z"/>
    <path class="fil1" d="M0.76 0.64c0,-0.01 0.01,-0.01 0.02,-0.01 0.1,0 0.2,0 0.3,0 0.08,0 0.17,0 0.25,0 0.02,0 0.02,0 0.02,0.02 0,0.02 0,0.03 0,0.05 0,0.01 0,0.02 -0.02,0.02 -0.03,0 -0.06,0 -0.1,0 -0.13,0 -0.26,0 -0.39,0 -0.02,0 -0.04,0 -0.06,0 -0.01,0 -0.02,-0.01 -0.02,-0.02 0,-0.02 0,-0.04 0,-0.06z"/>
   </g>
  </g>
 </g>
</svg>
